<svg width="140" height="48" viewBox="0 0 140 48" fill="none" xmlns="http://www.w3.org/2000/svg">
<g clip-path="url(#clip0_3348_1048)">
<path d="M65.4296 15.9209L59.7427 48.0007H69.6329L75.2697 15.9209H65.4281H65.4296Z" fill="#1E1E1E"/>
<path d="M127.686 15.9209L122 48.0007H131.89L137.53 15.9209H127.686Z" fill="#1E1E1E"/>
<path d="M118.61 28.8671C119.153 28.1943 119.589 27.4147 119.922 26.5192C120.258 25.6236 120.423 24.5999 120.423 23.4465C120.423 20.9566 119.444 19.0786 117.488 17.8138C115.525 16.5551 112.81 15.9189 109.338 15.9189H81.4478L75.7974 48.0003H103.89C106.947 48.0003 109.433 47.6876 111.342 47.0681C113.254 46.4426 114.759 45.6279 115.86 44.6195C116.961 43.611 117.704 42.479 118.104 41.2142C118.5 39.9495 118.704 38.6633 118.704 37.3528C118.704 35.7905 118.327 34.509 117.578 33.5173C116.833 32.5256 115.883 31.8589 114.74 31.5065C115.434 31.2822 116.121 30.9527 116.79 30.5209C117.461 30.0877 118.066 29.5384 118.608 28.8671H118.61ZM108.048 39.0829C107.475 39.5314 106.581 39.7557 105.374 39.7557H87.1667L87.9496 35.3435H106.138C107.984 35.3435 108.908 35.9523 108.908 37.1636C108.908 37.9936 108.621 38.6359 108.048 39.0829ZM109.721 27.9334C109.085 28.3011 108.352 28.4842 107.522 28.4842H89.1627L89.9076 24.2643H108.239C108.878 24.2643 109.44 24.3878 109.934 24.6289C110.43 24.8669 110.679 25.3047 110.679 25.9455C110.679 26.9052 110.361 27.5673 109.723 27.935L109.721 27.9334Z" fill="#1E1E1E"/>
<path d="M2.11608 39.252H1.45328C0.650657 39.252 0 39.905 0 40.7105C0 41.516 0.650657 42.169 1.45328 42.169H2.11608C2.9187 42.169 3.56936 41.516 3.56936 40.7105C3.56936 39.905 2.9187 39.252 2.11608 39.252Z" fill="#1E1E1E"/>
<path d="M6.22789 27.585H5.33707C4.53445 27.585 3.88379 28.238 3.88379 29.0435C3.88379 29.849 4.53445 30.502 5.33707 30.502H6.22789C7.03052 30.502 7.68117 29.849 7.68117 29.0435C7.68117 28.238 7.03052 27.585 6.22789 27.585Z" fill="#1E1E1E"/>
<path d="M8.93104 17.3784C8.93104 17.7812 8.76838 18.1458 8.50692 18.4098C8.24393 18.6737 7.88061 18.8385 7.47928 18.8385H7.46256C6.65991 18.8385 6.00928 18.184 6.00928 17.38C6.00928 16.9772 6.17194 16.6126 6.43645 16.3486C6.69943 16.0847 7.06275 15.9199 7.46408 15.9199H7.4808C8.28345 15.9199 8.93256 16.5744 8.93256 17.3784H8.93104Z" fill="#1E1E1E"/>
<path d="M56.3542 28.8671C56.8969 28.1943 57.3332 27.4147 57.6661 26.5192C58.0021 25.6236 58.1647 24.5999 58.1647 23.4465C58.1647 20.9566 57.1888 19.0786 55.2323 17.8138C53.2698 16.5551 50.5547 15.9189 47.0827 15.9189H12.1385C11.7372 15.9189 11.3739 16.0822 11.1109 16.3477C10.8479 16.6116 10.6868 16.9762 10.6868 17.379C10.6868 18.1845 11.3359 18.8375 12.1385 18.8375H15.2442L15.2412 18.8589C15.9222 18.9809 16.4376 19.5759 16.4376 20.2945C16.4376 20.6973 16.2764 21.0619 16.0135 21.3258C15.7505 21.5898 15.3871 21.7546 14.9858 21.7546H8.33964C7.93831 21.7546 7.57499 21.9163 7.312 22.1802C7.04902 22.4442 6.88788 22.8088 6.88788 23.2116C6.88788 24.0171 7.53699 24.6701 8.33964 24.6701H15.9086C16.7112 24.6701 17.3618 25.3215 17.3618 26.1271C17.3618 26.5298 17.1992 26.8945 16.9347 27.1584C16.6717 27.4223 16.3084 27.5871 15.907 27.5871H10.9224C10.5211 27.5871 10.1578 27.7488 9.89477 28.0128C9.63178 28.2767 9.47065 28.6413 9.47065 29.0441C9.47065 29.8497 10.1198 30.5026 10.9224 30.5026H18.4336C19.2362 30.5026 19.8853 31.1541 19.8853 31.9596C19.8853 32.3639 19.7242 32.7286 19.4612 32.9925C19.1982 33.2564 18.8349 33.4181 18.4336 33.4181H11.3313C10.93 33.4181 10.5667 33.5799 10.3037 33.8438C10.0407 34.1077 9.87653 34.4724 9.87653 34.8767C9.87653 35.6822 10.5287 36.3337 11.3298 36.3337H12.9488C13.753 36.3337 14.4021 36.9882 14.4021 37.7922C14.4021 38.195 14.2409 38.5596 13.9779 38.8235C13.715 39.0875 13.3516 39.2492 12.9488 39.2492H7.23448C6.83315 39.2492 6.46983 39.4124 6.20684 39.6779C5.94537 39.9418 5.78271 40.3065 5.78271 40.7092C5.78271 41.5148 6.43183 42.1662 7.23448 42.1662H15.7717C16.5744 42.1662 17.2235 42.8207 17.2235 43.6248C17.2235 44.0275 17.0609 44.3922 16.7994 44.6561C16.5364 44.92 16.1731 45.0817 15.7717 45.0817H13.5629C13.1616 45.0817 12.7983 45.245 12.5353 45.5105C12.2723 45.7744 12.1112 46.139 12.1112 46.5418C12.1112 47.3397 12.7481 47.9866 13.5417 47.9988H41.6344C44.6914 47.9988 47.1769 47.686 49.0847 47.0666C51.0002 46.4411 52.5036 45.6264 53.6042 44.618C54.7048 43.6095 55.4482 42.4775 55.848 41.2127C56.2447 39.9479 56.4484 38.6618 56.4484 37.3513C56.4484 35.789 56.0714 34.5075 55.322 33.5158C54.5771 32.5241 53.6255 31.8574 52.4838 31.505C53.1786 31.2807 53.8657 30.9512 54.5345 30.5194C55.2049 30.0861 55.81 29.5369 56.3527 28.8656L56.3542 28.8671ZM45.7921 39.0829C45.2174 39.5314 44.3236 39.7557 43.1181 39.7557H24.911L25.6939 35.3435H43.8827C45.7282 35.3435 46.6525 35.9523 46.6525 37.1636C46.6525 37.9936 46.3652 38.6359 45.7921 39.0829ZM47.4658 27.9334C46.8288 28.3011 46.0961 28.4842 45.2661 28.4842H26.907L27.6519 24.2643H45.9836C46.6221 24.2643 47.1845 24.3878 47.6786 24.6289C48.1742 24.8669 48.4235 25.3047 48.4235 25.9455C48.4235 26.9052 48.1058 27.5673 47.4673 27.935L47.4658 27.9334Z" fill="#1E1E1E"/>
<path d="M94.848 7.33834L92.5023 9.82362H87.6667C86.9188 9.82362 86.2347 9.7153 85.616 9.49866C84.9973 9.28202 84.4698 8.98299 84.0335 8.6031C83.5972 8.22322 83.2582 7.77315 83.018 7.2529C82.7778 6.73266 82.6577 6.16969 82.6577 5.56248C82.6577 4.7722 82.8356 4.04599 83.1898 3.3808C83.544 2.71562 84.0244 2.14503 84.6294 1.66902C85.2344 1.19302 85.9443 0.822288 86.7591 0.556825C87.5739 0.291362 88.4435 0.160156 89.3647 0.160156H96.1158L93.755 2.6729H88.9193C88.4784 2.6729 88.0574 2.74003 87.6591 2.87581C87.2608 3.0116 86.9127 3.19925 86.6162 3.43878C86.3183 3.67983 86.0842 3.96055 85.9109 4.28399C85.7376 4.60743 85.6525 4.96138 85.6525 5.34584C85.6525 5.64487 85.7117 5.91643 85.8318 6.16206C85.9519 6.40769 86.1191 6.61671 86.335 6.79063C86.5509 6.96456 86.8078 7.09881 87.1057 7.19493C87.4037 7.29104 87.7336 7.33987 88.0984 7.33987H94.8495L94.848 7.33834Z" fill="#1E1E1E"/>
<path d="M105.759 1.08321C105.597 0.77503 105.382 0.517195 105.118 0.309707C104.853 0.10527 104.498 0 104.046 0C103.595 0 103.169 0.109847 102.823 0.334117C102.476 0.555337 102.181 0.805543 101.929 1.08321L94.2153 9.82366H97.7421L98.6664 8.77249H106.136C106.331 9.14017 106.52 9.50022 106.69 9.82366H110.235L105.759 1.08321ZM100.851 6.2872L103.382 3.4083L104.663 5.96682C104.682 5.99886 104.739 6.11481 104.831 6.2872H100.851Z" fill="#1E1E1E"/>
<path d="M122.217 4.15083C122.115 4.31102 121.982 4.44375 121.814 4.54902C121.646 4.65582 121.451 4.7382 121.224 4.79618C120.998 4.85263 120.761 4.88162 120.512 4.88162H115.113L115.481 2.67095H120.901C121.363 2.67095 121.72 2.75028 121.982 2.90895C122.24 3.06914 122.371 3.30714 122.371 3.62448C122.371 3.81671 122.321 3.99369 122.219 4.15083H122.217ZM124.649 5.40339C124.923 5.08605 125.134 4.72905 125.283 4.33391C125.432 3.94029 125.508 3.52379 125.508 3.09203C125.508 2.51381 125.373 2.03628 125.105 1.66097C124.836 1.28718 124.488 0.985105 124.061 0.757784C123.634 0.531987 123.16 0.374845 122.637 0.289409C122.114 0.202447 121.601 0.158203 121.103 0.158203H112.991L111.273 9.8232H114.251L114.698 7.26621H119.274L120.974 9.8232H124.96L123.506 7.94512C123.237 7.60795 123.02 7.34249 122.851 7.15026C122.682 6.95802 122.533 6.79936 122.397 6.67425C122.859 6.58729 123.28 6.4332 123.663 6.21046C124.046 5.98771 124.376 5.72072 124.649 5.40186V5.40339Z" fill="#1E1E1E"/>
<path d="M135.97 4.01517C137.016 4.01517 137.81 4.2013 138.352 4.5705C138.895 4.94124 139.166 5.48742 139.166 6.21058C139.166 6.73082 139.079 7.21293 138.907 7.65537C138.734 8.09781 138.459 8.48075 138.08 8.80418C137.702 9.12762 137.212 9.37783 136.612 9.5548C136.013 9.7333 135.285 9.82179 134.432 9.82179H125.464L127.81 7.33651H135.107C135.51 7.33651 135.802 7.26938 135.984 7.1336C136.166 6.99934 136.258 6.79185 136.258 6.51266C136.258 6.12819 135.955 5.93444 135.35 5.93444H130.096C129.002 5.93444 128.201 5.72237 127.693 5.29824C127.184 4.87411 126.93 4.31114 126.93 3.60782C126.93 3.11656 127.016 2.66192 127.188 2.24236C127.362 1.82281 127.637 1.45818 128.017 1.14389C128.395 0.831136 128.883 0.587032 129.478 0.414634C130.072 0.24071 130.793 0.155273 131.636 0.155273H139.999L137.638 2.66802H130.96C130.557 2.66802 130.264 2.72752 130.081 2.84805C129.899 2.96857 129.807 3.17301 129.807 3.46136C129.807 3.82751 130.115 4.01059 130.729 4.01059H135.967L135.97 4.01517Z" fill="#1E1E1E"/>
</g>
<defs>
<clipPath id="clip0_3348_1048">
<rect width="140" height="48" fill="white"/>
</clipPath>
</defs>
</svg>
