<svg width="71" height="70" viewBox="0 0 71 70" fill="none" xmlns="http://www.w3.org/2000/svg">
<g clip-path="url(#clip0_204_1674)">
<path d="M25.3815 55.5769C17.4214 51.7712 12.278 43.68 12.278 34.9637C12.278 27.2554 16.1767 20.1114 22.7069 15.8534C23.5309 15.3161 23.757 14.222 23.2121 13.4096C22.6671 12.5972 21.5576 12.3742 20.7334 12.9115C20.3647 13.1521 20.0034 13.4002 19.6493 13.6563L16.1165 10.7334C14.0762 9.04579 11.0233 9.30894 9.31138 11.3205L7.29993 13.6843C6.47238 14.6564 6.07867 15.8908 6.19116 17.1603C6.30385 18.43 6.90901 19.5784 7.89496 20.3937L11.4339 23.3217C10.5841 25.0297 9.92092 26.8312 9.46104 28.695H4.83019C2.16687 28.695 0 30.8313 0 33.4571V36.5432C0 39.169 2.16687 41.3054 4.83019 41.3054H9.47972C9.94139 43.1523 10.605 44.9454 11.4618 46.6555L7.89556 49.6062C6.90921 50.4219 6.30404 51.5701 6.19136 52.84C6.07887 54.1095 6.47258 55.344 7.29973 56.3154L9.31158 58.6801C10.2657 59.8008 11.636 60.3785 13.0157 60.3785C14.1116 60.3785 15.2136 60.0136 16.1169 59.2667L19.6962 56.3054C20.9886 57.2366 22.3682 58.0558 23.8206 58.7502C24.7096 59.1748 25.7794 58.8092 26.2105 57.9329C26.6415 57.0567 26.2703 56.0017 25.3815 55.5769ZM4.83019 37.7786C4.13936 37.7786 3.57733 37.2245 3.57733 36.5434V33.4573C3.57733 32.7762 4.13936 32.2221 4.83019 32.2221H8.84395C8.74895 33.127 8.70065 34.0418 8.70065 34.9637C8.70065 35.9082 8.75133 36.8475 8.8517 37.7786H4.83019ZM10.1942 17.6915C9.9404 17.4817 9.78439 17.1838 9.75497 16.8531C9.72576 16.5221 9.82692 16.202 10.0404 15.9514L12.052 13.5873C12.2994 13.2965 12.6548 13.1466 13.0125 13.1466C13.2969 13.1466 13.5827 13.2413 13.817 13.4351L16.8727 15.9633C15.5087 17.2612 14.2974 18.689 13.2518 20.2213L10.1942 17.6915ZM13.8174 56.5649C13.2878 57.0028 12.4956 56.9344 12.0518 56.4132L10.0402 54.0484C9.82712 53.7982 9.72576 53.478 9.75517 53.1471C9.78458 52.8163 9.9406 52.5185 10.1948 52.3081L13.2872 49.7494C14.3473 51.2952 15.5642 52.7191 16.9154 54.002L13.8174 56.5649ZM66.1698 28.695H61.5425C61.0836 26.828 60.4213 25.0252 59.5718 23.3172L63.105 20.3939C65.1451 18.7063 65.4122 15.6964 63.7005 13.6845L61.6886 11.3205C59.9767 9.30894 56.9238 9.0456 54.8835 10.7334L51.3509 13.6561C50.8841 13.3189 50.4037 12.9946 49.9115 12.6844C49.0789 12.1601 47.9729 12.4003 47.4411 13.2211C46.9093 14.0419 47.1529 15.1323 47.9855 15.6567C54.7081 19.8911 58.7216 27.1086 58.7216 34.9637C58.7216 43.8571 53.4298 52.0177 45.2399 55.7539C44.3434 56.1628 43.9528 57.2111 44.3676 58.0948C44.7824 58.9787 45.8458 59.3639 46.7419 58.9548C48.3651 58.2143 49.8894 57.3234 51.3013 56.3033L54.8834 59.2667C55.7586 59.9909 56.8437 60.3781 57.9773 60.3781C58.1206 60.3781 58.2645 60.3718 58.409 60.3595C59.6966 60.2484 60.8615 59.6519 61.6886 58.6799L63.7005 56.316C65.4124 54.3043 65.1455 51.2946 63.105 49.6066L59.5231 46.643C60.3734 44.9467 61.0417 43.1582 61.5094 41.3056H66.1696C68.8329 41.3056 70.9998 39.1692 70.9998 36.5434V33.4573C71 30.8313 68.8331 28.695 66.1698 28.695ZM60.8058 52.3081C61.3351 52.746 61.4044 53.5268 60.9602 54.0488L58.9484 56.4126C58.7353 56.6628 58.4332 56.8167 58.0976 56.8455C57.7609 56.8741 57.4372 56.7747 57.1832 56.5645L54.0779 53.9955C55.4358 52.7021 56.6492 51.2735 57.6999 49.7381L60.8058 52.3081ZM57.754 20.2172C56.7084 18.6861 55.4953 17.2585 54.1299 15.9613L57.1832 13.4355C57.7124 12.9977 58.5042 13.0659 58.9484 13.5875L60.96 15.9514C61.4042 16.4733 61.3351 17.2544 60.8058 17.6923L57.754 20.2172ZM67.4227 36.5432C67.4227 37.2243 66.8606 37.7784 66.1698 37.7784H62.1451C62.2469 36.8497 62.2987 35.9099 62.2987 34.9635C62.2987 34.0412 62.2507 33.1262 62.1565 32.2219H66.1696C66.8604 32.2219 67.4225 32.776 67.4225 33.4571L67.4227 36.5432ZM47.5413 34.9635C47.5413 30.8305 45.4126 27.0583 41.8466 24.8729C41.0077 24.3588 40.7503 23.2715 41.2718 22.4443C41.7933 21.6174 42.8961 21.3632 43.7352 21.8776C48.3585 24.7109 51.1186 29.6028 51.1186 34.9635C51.1186 38.6084 49.8031 42.1442 47.4149 44.9199C47.0611 45.331 46.5573 45.5426 46.0501 45.5426C45.6411 45.5426 45.2301 45.405 44.8939 45.1239C44.1404 44.4939 44.048 43.381 44.687 42.6384C46.5275 40.4991 47.5413 37.7737 47.5413 34.9635ZM26.5145 42.8664C27.1726 43.593 27.1084 44.7077 26.3715 45.3564C26.0304 45.6566 25.6047 45.8044 25.1808 45.8044C24.6889 45.8044 24.1992 45.6055 23.8459 45.2154C21.2897 42.392 19.8818 38.7513 19.8818 34.9637C19.8818 29.264 23.0529 24.0553 28.1575 21.3701C29.029 20.9118 30.1125 21.2365 30.5776 22.0959C31.0426 22.9551 30.7131 24.0233 29.8415 24.4818C25.9048 26.5526 23.4593 30.569 23.4593 34.9637C23.4591 37.8838 24.5442 40.6905 26.5145 42.8664ZM37.2587 40.6439C37.2785 40.5384 37.2889 40.4299 37.2889 40.3188V18.4782L43.7785 14.7841C44.332 14.4691 44.6729 13.8869 44.6729 13.257V4.8503C44.6729 4.22035 44.332 3.63801 43.7785 3.32313L40.0867 1.22166C39.2313 0.734751 38.1371 1.02357 37.6434 1.8671C37.1495 2.71062 37.4427 3.78908 38.2981 4.276L41.0955 5.86841V12.2387L35.5002 15.4237L29.9045 12.2389V5.86861L32.7023 4.27619C33.5579 3.78928 33.8511 2.71082 33.3572 1.86729C32.8633 1.02376 31.7692 0.734751 30.9139 1.22166L27.2215 3.32313C26.668 3.63801 26.3271 4.22035 26.3271 4.8503V13.257C26.3271 13.8869 26.668 14.4693 27.2215 14.7841L33.7115 18.4782V40.3188C33.7115 40.4299 33.7219 40.5384 33.7417 40.6439C31.3213 41.3845 29.5587 43.6128 29.5587 46.2394V64.9321C29.5587 67.1835 31.4161 69.015 33.699 69.015H37.3002C39.5837 69.015 41.4413 67.1835 41.4413 64.9321V46.2394C41.4415 43.6128 39.6789 41.3845 37.2587 40.6439ZM37.8642 64.9321C37.8642 65.2335 37.6061 65.488 37.3004 65.488H33.6992C33.3939 65.488 33.1362 65.2335 33.1362 64.9321V46.2394C33.1362 44.9544 34.1967 43.909 35.5004 43.909C36.8041 43.909 37.8646 44.9544 37.8646 46.2394L37.8642 64.9321Z" fill="#FEAE00"/>
</g>
<defs>
<clipPath id="clip0_204_1674">
<rect width="71" height="70" fill="white"/>
</clipPath>
</defs>
</svg>
