<svg width="62" height="62" viewBox="0 0 62 62" fill="none" xmlns="http://www.w3.org/2000/svg">
<path d="M20.5759 16.0218C20.0957 15.9515 19.606 16.0482 19.1886 16.2956H19.1524C18.1837 16.864 17.3105 17.5795 16.5665 18.4217C15.9465 19.1373 15.6107 19.8606 15.5229 20.5581C15.4712 20.9715 15.5074 21.39 15.6288 21.7852L15.6753 21.811C16.3728 23.8596 17.2821 25.8307 18.3929 27.6855C19.8259 30.2904 21.5885 32.6998 23.6371 34.8543L23.6991 34.9421L23.7973 35.0145L23.8567 35.0842L23.929 35.1462C26.0912 37.2008 28.5063 38.9717 31.1159 40.4162C34.0996 42.0411 35.9105 42.8084 36.9981 43.1287V43.1442C37.3159 43.2424 37.6052 43.2863 37.8971 43.2863C38.8238 43.2198 39.7011 42.843 40.3874 42.2168C41.227 41.4728 41.9374 40.597 42.4903 39.6231V39.605C43.0095 38.6234 42.8339 37.6985 42.0847 37.0708C40.5811 35.7544 38.9538 34.5865 37.2254 33.5833C36.0681 32.9555 34.8927 33.3353 34.4174 33.9708L33.4021 35.2521C32.8803 35.8876 31.9348 35.7998 31.9348 35.7998L31.9089 35.8153C24.8539 34.0147 22.9706 26.8718 22.9706 26.8718C22.9706 26.8718 22.8828 25.9005 23.5364 25.4045L24.8074 24.3815C25.417 23.8855 25.8407 22.7126 25.1871 21.5553C24.1863 19.8281 23.0209 18.2017 21.7074 16.6986C21.42 16.3457 21.0176 16.1052 20.5707 16.0192M32.4979 12.9166C32.1554 12.9166 31.8268 13.0527 31.5846 13.2949C31.3424 13.5372 31.2063 13.8657 31.2063 14.2083C31.2063 14.5509 31.3424 14.8794 31.5846 15.1216C31.8268 15.3639 32.1554 15.5 32.4979 15.5C35.7633 15.5 38.4758 16.5669 40.6225 18.6129C41.7256 19.7315 42.5859 21.0567 43.149 22.5085C43.7148 23.963 43.9731 25.5155 43.9059 27.0707C43.8916 27.4133 44.0138 27.7475 44.2459 27.9999C44.478 28.2524 44.8008 28.4022 45.1434 28.4166C45.4859 28.431 45.8202 28.3087 46.0726 28.0767C46.325 27.8446 46.4749 27.5218 46.4893 27.1792C46.5664 25.2664 46.2489 23.3582 45.5567 21.5734C44.8613 19.7795 43.8023 18.1488 42.4464 16.7839L42.4205 16.758C39.7571 14.2135 36.3884 12.9166 32.4979 12.9166Z" fill="#FEAE00"></path>
<path d="M32.4089 17.1638C32.0663 17.1638 31.7377 17.2999 31.4955 17.5422C31.2533 17.7844 31.1172 18.1129 31.1172 18.4555C31.1172 18.7981 31.2533 19.1266 31.4955 19.3689C31.7377 19.6111 32.0663 19.7472 32.4089 19.7472H32.4528C34.8088 19.9151 36.5241 20.7004 37.7254 21.9895C38.9576 23.3173 39.5957 24.9681 39.5466 27.0089C39.5387 27.3515 39.6673 27.6832 39.9039 27.931C40.1406 28.1788 40.466 28.3224 40.8086 28.3303C41.1511 28.3382 41.4828 28.2096 41.7306 27.973C41.9784 27.7363 42.1221 27.4109 42.1299 27.0683C42.1919 24.3894 41.3291 22.0773 39.6189 20.2328V20.2277C37.87 18.3522 35.4701 17.3602 32.5819 17.1664L32.538 17.1613L32.4089 17.1638Z" fill="#FEAE00"></path>
<path d="M32.3583 21.4904C32.1855 21.4751 32.0113 21.4948 31.8462 21.5484C31.6812 21.6019 31.5286 21.6882 31.3976 21.802C31.2666 21.9158 31.1599 22.0549 31.0838 22.2108C31.0078 22.3668 30.9639 22.5365 30.9549 22.7098C30.9458 22.8831 30.9718 23.0564 31.0313 23.2195C31.0907 23.3825 31.1824 23.5319 31.3009 23.6587C31.4193 23.7855 31.5621 23.8872 31.7207 23.9576C31.8793 24.028 32.0505 24.0657 32.224 24.0685C33.3038 24.1254 33.9936 24.4508 34.4276 24.8874C34.8642 25.3266 35.1897 26.0318 35.2491 27.1349C35.2523 27.3083 35.2904 27.4792 35.3611 27.6375C35.4317 27.7958 35.5336 27.9383 35.6605 28.0564C35.7874 28.1745 35.9368 28.2659 36.0997 28.325C36.2627 28.3842 36.4359 28.41 36.609 28.4008C36.7821 28.3916 36.9516 28.3476 37.1074 28.2715C37.2632 28.1954 37.4021 28.0888 37.5158 27.9579C37.6294 27.827 37.7156 27.6745 37.7691 27.5096C37.8226 27.3447 37.8424 27.1707 37.8272 26.998C37.7446 25.448 37.2589 24.0788 36.2643 23.0713C35.2646 22.0638 33.9032 21.573 32.3583 21.4904Z" fill="#FEAE00"></path>
<path fill-rule="evenodd" clip-rule="evenodd" d="M18.2573 6.15878C26.4777 4.32126 35.0023 4.32126 43.2227 6.15878L44.0984 6.35253C46.5008 6.89109 48.7071 8.08448 50.4727 9.80036C52.2383 11.5162 53.4941 13.6876 54.1011 16.0736C56.1896 24.2958 56.1896 32.9097 54.1011 41.1319C53.4941 43.518 52.2383 45.6893 50.4727 47.4052C48.7071 49.1211 46.5008 50.3145 44.0984 50.853L43.2201 51.0468C38.0713 52.1965 32.7885 52.6303 27.5212 52.3359L20.6676 58.4687C20.4092 58.7 20.0934 58.8578 19.7533 58.9255C19.4131 58.9931 19.0611 58.9683 18.7338 58.8535C18.4065 58.7387 18.1161 58.5381 17.8928 58.2728C17.6695 58.0074 17.5215 57.687 17.4642 57.3449L16.3302 50.5714C14.1561 49.8937 12.1918 48.6702 10.6249 47.0178C9.05787 45.3653 7.94036 43.3389 7.3789 41.1319C5.29037 32.9097 5.29037 24.2958 7.3789 16.0736C7.98583 13.6876 9.24171 11.5162 11.0073 9.80036C12.7729 8.08448 14.9792 6.89109 17.3816 6.35253L18.2573 6.15878ZM42.3779 9.93819C34.7139 8.22494 26.7661 8.22494 19.1021 9.93819L18.2237 10.1345C16.5212 10.5173 14.9578 11.3638 13.7067 12.5803C12.4556 13.7968 11.5655 15.3358 11.1351 17.0269C9.2053 24.6235 9.2053 32.5821 11.1351 40.1787C11.5657 41.8701 12.4562 43.4093 13.7078 44.6258C14.9594 45.8423 16.5233 46.6886 18.2263 47.071L18.4588 47.1227C18.8349 47.2068 19.1774 47.4012 19.4425 47.681C19.7075 47.9608 19.8831 48.3132 19.9468 48.6934L20.7063 53.2349L25.5423 48.9078C25.7354 48.7345 25.9614 48.6017 26.2068 48.5174C26.4522 48.4331 26.712 48.3989 26.9709 48.4169C32.1351 48.7816 37.325 48.3943 42.3779 47.2674L43.2537 47.071C44.9566 46.6886 46.5206 45.8423 47.7722 44.6258C49.0238 43.4093 49.9142 41.8701 50.3449 40.1787C52.2721 32.5837 52.2721 24.6244 50.3449 17.0269C49.9142 15.3354 49.0238 13.7962 47.7722 12.5797C46.5206 11.3632 44.9566 10.5169 43.2537 10.1345L42.3779 9.93819Z" fill="#FEAE00"></path>
</svg>
