<svg width="427" height="146" viewBox="0 0 427 146" fill="none" xmlns="http://www.w3.org/2000/svg">
<g clip-path="url(#clip0_60_2243)">
<path d="M199.562 48.3818L182.217 145.874H212.382L229.574 48.3818H199.557H199.562Z" fill="url(#paint0_linear_60_2243)"/>
<path d="M389.445 48.3818L372.1 145.874H402.265L419.466 48.3818H389.445Z" fill="url(#paint1_linear_60_2243)"/>
<path d="M361.76 87.7261C363.415 85.6814 364.746 83.3121 365.761 80.5905C366.786 77.8689 367.291 74.7578 367.291 71.2525C367.291 63.6858 364.305 57.9782 358.338 54.1345C352.352 50.3094 344.072 48.376 333.482 48.376H248.416L231.182 145.873H316.864C326.188 145.873 333.769 144.922 339.593 143.04C345.425 141.139 350.016 138.663 353.372 135.598C356.729 132.533 358.996 129.093 360.216 125.249C361.426 121.406 362.047 117.497 362.047 113.514C362.047 108.767 360.897 104.872 358.612 101.858C356.34 98.8445 353.442 96.8183 349.955 95.7473C352.074 95.0657 354.17 94.0642 356.21 92.7521C358.255 91.4353 360.1 89.7662 361.755 87.7261H361.76ZM329.545 118.772C327.797 120.135 325.071 120.817 321.39 120.817H265.858L268.246 107.408H323.722C329.351 107.408 332.17 109.258 332.17 112.939C332.17 115.462 331.293 117.414 329.545 118.772ZM334.65 84.8885C332.707 86.0059 330.473 86.5623 327.941 86.5623H271.946L274.218 73.7377H330.13C332.077 73.7377 333.792 74.1133 335.299 74.8458C336.811 75.5691 337.571 76.8998 337.571 78.8472C337.571 81.7635 336.602 83.7758 334.655 84.8932L334.65 84.8885Z" fill="url(#paint2_linear_60_2243)"/>
<path d="M6.45403 119.288H4.43251C1.9845 119.288 0 121.273 0 123.721C0 126.169 1.9845 128.153 4.43251 128.153H6.45403C8.90204 128.153 10.8865 126.169 10.8865 123.721C10.8865 121.273 8.90204 119.288 6.45403 119.288Z" fill="url(#paint3_linear_60_2243)"/>
<path d="M18.9972 83.832H16.2802C13.8322 83.832 11.8477 85.8165 11.8477 88.2645C11.8477 90.7125 13.8322 92.697 16.2802 92.697H18.9972C21.4452 92.697 23.4297 90.7125 23.4297 88.2645C23.4297 85.8165 21.4452 83.832 18.9972 83.832Z" fill="url(#paint4_linear_60_2243)"/>
<path d="M27.2376 52.8163C27.2376 54.0403 26.7414 55.1485 25.944 55.9506C25.1419 56.7527 24.0337 57.2534 22.8097 57.2534H22.7587C20.3106 57.2534 18.3262 55.2644 18.3262 52.8209C18.3262 51.5969 18.8223 50.4888 19.629 49.6867C20.4312 48.8845 21.5393 48.3838 22.7633 48.3838H22.8143C25.2624 48.3838 27.2422 50.3729 27.2422 52.8163H27.2376Z" fill="url(#paint5_linear_60_2243)"/>
<path d="M171.882 87.7281C173.537 85.6833 174.868 83.3141 175.883 80.5925C176.908 77.8708 177.404 74.7597 177.404 71.2545C177.404 63.6877 174.427 57.9802 168.46 54.1365C162.474 50.3114 154.193 48.3779 143.604 48.3779H37.0239C35.7999 48.3779 34.6918 48.874 33.8897 49.6808C33.0875 50.4829 32.5961 51.591 32.5961 52.8151C32.5961 55.2632 34.5759 57.2476 37.0239 57.2476H46.4963L46.4871 57.3125C48.5642 57.6834 50.136 59.4917 50.136 61.6755C50.136 62.8995 49.6445 64.0076 48.8424 64.8097C48.0403 65.6119 46.9322 66.1126 45.7081 66.1126H25.4373C24.2133 66.1126 23.1051 66.6041 22.303 67.4062C21.5009 68.2083 21.0094 69.3164 21.0094 70.5405C21.0094 72.9886 22.9892 74.973 25.4373 74.973H48.5225C50.9706 74.973 52.955 76.9528 52.955 79.4009C52.955 80.6249 52.4589 81.733 51.6522 82.5351C50.85 83.3373 49.7419 83.838 48.5179 83.838H33.3147C32.0907 83.838 30.9826 84.3295 30.1804 85.1316C29.3783 85.9337 28.8869 87.0418 28.8869 88.2659C28.8869 90.714 30.8667 92.6984 33.3147 92.6984H56.2238C58.6718 92.6984 60.6516 94.6782 60.6516 97.1263C60.6516 98.3549 60.1602 99.4631 59.358 100.265C58.5559 101.067 57.4478 101.559 56.2238 101.559H34.562C33.3379 101.559 32.2298 102.05 31.4277 102.852C30.6256 103.654 30.1248 104.763 30.1248 105.991C30.1248 108.439 32.1139 110.419 34.5573 110.419H39.4952C41.9479 110.419 43.9277 112.408 43.9277 114.852C43.9277 116.076 43.4362 117.184 42.6341 117.986C41.832 118.788 40.7239 119.28 39.4952 119.28H22.0665C20.8425 119.28 19.7344 119.776 18.9323 120.582C18.1348 121.385 17.6387 122.493 17.6387 123.717C17.6387 126.165 19.6185 128.145 22.0665 128.145H48.1052C50.5533 128.145 52.5331 130.134 52.5331 132.577C52.5331 133.801 52.037 134.909 51.2395 135.711C50.4374 136.513 49.3293 137.005 48.1052 137.005H41.3684C40.1443 137.005 39.0362 137.501 38.2341 138.308C37.432 139.11 36.9405 140.218 36.9405 141.442C36.9405 143.867 38.8832 145.833 41.3035 145.87H126.986C136.31 145.87 143.891 144.919 149.71 143.037C155.552 141.136 160.137 138.66 163.494 135.595C166.851 132.531 169.118 129.09 170.338 125.247C171.548 121.403 172.169 117.494 172.169 113.512C172.169 108.764 171.019 104.869 168.733 101.856C166.462 98.8418 163.559 96.8156 160.077 95.7446C162.196 95.063 164.292 94.0615 166.332 92.7494C168.376 91.4326 170.222 89.7635 171.877 87.7234L171.882 87.7281ZM139.667 118.774C137.915 120.137 135.188 120.819 131.512 120.819H75.98L78.3678 107.41H133.844C139.472 107.41 142.291 109.26 142.291 112.941C142.291 115.464 141.415 117.416 139.667 118.774ZM144.772 84.8905C142.829 86.0079 140.594 86.5643 138.063 86.5643H82.0677L84.3396 73.7397H140.251C142.199 73.7397 143.914 74.1152 145.421 74.8478C146.933 75.5711 147.693 76.9018 147.693 78.8491C147.693 81.7655 146.724 83.7777 144.777 84.8951L144.772 84.8905Z" fill="url(#paint6_linear_60_2243)"/>
<path d="M289.286 22.3031L282.132 29.856H267.383C265.102 29.856 263.015 29.5268 261.128 28.8684C259.241 28.21 257.632 27.3013 256.302 26.1468C254.971 24.9923 253.937 23.6245 253.204 22.0434C252.472 20.4624 252.105 18.7515 252.105 16.9062C252.105 14.5045 252.648 12.2975 253.728 10.276C254.809 8.25445 256.274 6.52039 258.119 5.0738C259.964 3.6272 262.13 2.50053 264.615 1.69378C267.1 0.887022 269.752 0.488281 272.562 0.488281H293.153L285.952 8.12462H271.203C269.859 8.12462 268.574 8.32863 267.36 8.74128C266.145 9.15393 265.083 9.72422 264.179 10.4522C263.27 11.1847 262.556 12.0378 262.028 13.0208C261.499 14.0037 261.239 15.0794 261.239 16.2478C261.239 17.1566 261.42 17.9819 261.787 18.7283C262.153 19.4748 262.663 20.11 263.321 20.6386C263.98 21.1671 264.763 21.5752 265.672 21.8673C266.581 22.1594 267.587 22.3077 268.7 22.3077H289.29L289.286 22.3031Z" fill="url(#paint7_linear_60_2243)"/>
<path d="M322.567 3.29388C322.071 2.3573 321.417 1.57373 320.611 0.943166C319.804 0.321873 318.719 0.00195312 317.342 0.00195312C315.965 0.00195312 314.667 0.335782 313.609 1.01735C312.552 1.68965 311.653 2.45003 310.883 3.29388L287.357 29.8565H298.114L300.933 26.6619H323.717C324.31 27.7793 324.885 28.8735 325.405 29.8565H336.217L322.567 3.29388ZM307.596 19.109L315.316 10.3599L319.224 18.1354C319.28 18.2327 319.456 18.5851 319.734 19.109H307.596Z" fill="url(#paint8_linear_60_2243)"/>
<path d="M372.763 12.6181C372.452 13.105 372.044 13.5083 371.534 13.8283C371.02 14.1528 370.426 14.4032 369.735 14.5794C369.045 14.7509 368.321 14.839 367.561 14.839H351.097L352.219 8.12072H368.748C370.157 8.12072 371.247 8.36182 372.044 8.84401C372.833 9.33085 373.231 10.0541 373.231 11.0185C373.231 11.6027 373.078 12.1406 372.768 12.6181H372.763ZM380.181 16.4247C381.016 15.4603 381.661 14.3754 382.115 13.1745C382.569 11.9783 382.801 10.7125 382.801 9.4004C382.801 7.64316 382.388 6.19193 381.572 5.05134C380.752 3.9154 379.69 2.99737 378.387 2.30653C377.084 1.62032 375.638 1.14276 374.043 0.883115C372.448 0.618834 370.885 0.484375 369.364 0.484375H344.624L339.385 29.8567H348.468L349.831 22.0859H363.787L368.97 29.8567H381.127L376.695 24.1492C375.874 23.1245 375.211 22.3177 374.696 21.7335C374.182 21.1493 373.727 20.6671 373.31 20.2869C374.72 20.0227 376.004 19.5544 377.172 18.8774C378.341 18.2051 379.347 17.3891 380.181 16.4201V16.4247Z" fill="url(#paint9_linear_60_2243)"/>
<path d="M414.709 12.204C417.899 12.204 420.319 12.7697 421.974 13.8917C423.63 15.0184 424.455 16.6783 424.455 18.876C424.455 20.457 424.191 21.9222 423.667 23.2667C423.138 24.6113 422.299 25.7751 421.144 26.758C419.99 27.741 418.497 28.5014 416.666 29.0392C414.839 29.5817 412.618 29.8506 410.017 29.8506H382.666L389.82 22.2977H412.075C413.304 22.2977 414.194 22.0937 414.751 21.6811C415.307 21.273 415.585 20.6425 415.585 19.794C415.585 18.6256 414.663 18.0368 412.817 18.0368H396.793C393.455 18.0368 391.012 17.3923 389.463 16.1033C387.91 14.8144 387.136 13.1035 387.136 10.9661C387.136 9.47311 387.4 8.09143 387.924 6.81639C388.452 5.54134 389.292 4.43322 390.451 3.4781C391.605 2.52761 393.094 1.78577 394.906 1.26184C396.719 0.733278 398.917 0.473633 401.49 0.473633H426.996L419.795 8.10997H399.427C398.198 8.10997 397.303 8.2908 396.747 8.65708C396.191 9.02337 395.913 9.64466 395.913 10.521C395.913 11.6337 396.849 12.1901 398.722 12.1901H414.7L414.709 12.204Z" fill="url(#paint10_linear_60_2243)"/>
</g>
<defs>
<linearGradient id="paint0_linear_60_2243" x1="191.277" y1="97.1302" x2="428.884" y2="97.1302" gradientUnits="userSpaceOnUse">
<stop stop-color="#FEAE00"/>
<stop offset="1" stop-color="#FFEA43"/>
</linearGradient>
<linearGradient id="paint1_linear_60_2243" x1="191.275" y1="-0.000215256" x2="428.883" y2="-0.000215256" gradientUnits="userSpaceOnUse">
<stop stop-color="#FEAE00"/>
<stop offset="1" stop-color="#FFEA43"/>
</linearGradient>
<linearGradient id="paint2_linear_60_2243" x1="0.000312659" y1="97.1243" x2="428.883" y2="97.1243" gradientUnits="userSpaceOnUse">
<stop stop-color="#FEAE00"/>
<stop offset="1" stop-color="#FFEA43"/>
</linearGradient>
<linearGradient id="paint3_linear_60_2243" x1="191.275" y1="123.721" x2="428.882" y2="123.721" gradientUnits="userSpaceOnUse">
<stop stop-color="#FEAE00"/>
<stop offset="1" stop-color="#FFEA43"/>
</linearGradient>
<linearGradient id="paint4_linear_60_2243" x1="191.276" y1="88.2645" x2="428.884" y2="88.2645" gradientUnits="userSpaceOnUse">
<stop stop-color="#FEAE00"/>
<stop offset="1" stop-color="#FFEA43"/>
</linearGradient>
<linearGradient id="paint5_linear_60_2243" x1="191.273" y1="52.8163" x2="428.88" y2="52.8163" gradientUnits="userSpaceOnUse">
<stop stop-color="#FEAE00"/>
<stop offset="1" stop-color="#FFEA43"/>
</linearGradient>
<linearGradient id="paint6_linear_60_2243" x1="191.276" y1="97.1263" x2="428.884" y2="97.1263" gradientUnits="userSpaceOnUse">
<stop stop-color="#FEAE00"/>
<stop offset="1" stop-color="#FFEA43"/>
</linearGradient>
<linearGradient id="paint7_linear_60_2243" x1="191.274" y1="15.1675" x2="428.882" y2="15.1675" gradientUnits="userSpaceOnUse">
<stop stop-color="#FEAE00"/>
<stop offset="1" stop-color="#FFEA43"/>
</linearGradient>
<linearGradient id="paint8_linear_60_2243" x1="191.275" y1="14.9315" x2="428.882" y2="14.9315" gradientUnits="userSpaceOnUse">
<stop stop-color="#FEAE00"/>
<stop offset="1" stop-color="#FFEA43"/>
</linearGradient>
<linearGradient id="paint9_linear_60_2243" x1="191.276" y1="15.1682" x2="428.883" y2="15.1682" gradientUnits="userSpaceOnUse">
<stop stop-color="#FEAE00"/>
<stop offset="1" stop-color="#FFEA43"/>
</linearGradient>
<linearGradient id="paint10_linear_60_2243" x1="191.275" y1="15.1668" x2="428.883" y2="15.1668" gradientUnits="userSpaceOnUse">
<stop stop-color="#FEAE00"/>
<stop offset="1" stop-color="#FFEA43"/>
</linearGradient>
<clipPath id="clip0_60_2243">
<rect width="427" height="145.874" fill="white"/>
</clipPath>
</defs>
</svg>
