<svg width="32" height="32" viewBox="0 0 32 32" fill="none" xmlns="http://www.w3.org/2000/svg">
  <!-- Active state: solid amber circle with black heart-on-pedestal glyph -->
  <circle cx="16" cy="16" r="15.5" fill="#FEAE00" stroke="#FEAE00"/>
  <path d="M20.2548 10.9862L21.6705 15.1643H22.3518V15.9999H22.2063C22.1181 16.248 21.9946 16.4743 21.8358 16.6789C21.6771 16.8834 21.4919 17.0597 21.2802 17.2077C21.0685 17.3556 20.8391 17.4688 20.5922 17.5471C20.3452 17.6255 20.085 17.6668 19.8116 17.6712C19.5425 17.6712 19.2845 17.632 19.0376 17.5537C18.7906 17.4753 18.5613 17.3622 18.3496 17.2142C18.1379 17.0662 17.9526 16.8899 17.7939 16.6854C17.6351 16.4808 17.5094 16.2523 17.4168 15.9999H17.2713V15.1643H17.9526L19.3683 10.9862H16.4245V20.1911C17.161 20.239 17.8578 20.4022 18.5149 20.6807C19.1721 20.9592 19.7741 21.3488 20.3209 21.8493H21.5051V22.6849H10.4972V21.8493H11.6813C12.2238 21.3531 12.8235 20.9658 13.4807 20.6872C14.1378 20.4087 14.8368 20.2433 15.5777 20.1911V10.9862H12.6339L14.0496 15.1643H14.731V15.9999H14.5854C14.4972 16.248 14.3737 16.4743 14.215 16.6789C14.0562 16.8834 13.871 17.0597 13.6593 17.2077C13.4476 17.3556 13.2183 17.4688 12.9713 17.5471C12.7243 17.6255 12.4641 17.6668 12.1907 17.6712C11.9217 17.6712 11.6637 17.632 11.4167 17.5537C11.1697 17.4753 10.9404 17.3622 10.7287 17.2142C10.517 17.0662 10.3318 16.8899 10.173 16.6854C10.0142 16.4808 9.88854 16.2523 9.79593 15.9999H9.65039V15.1643H10.3318L11.7475 10.9862H9.65039V10.1506H15.5777V9.31494H16.4245V10.1506H22.3518V10.9862H20.2548ZM12.1907 12.3049L11.2248 15.1643H13.1565L12.1907 12.3049ZM12.1907 16.8355C12.495 16.8355 12.7772 16.7616 13.0374 16.6136C13.2976 16.4656 13.5049 16.2611 13.6593 15.9999H10.7221C10.8764 16.2611 11.0837 16.4656 11.3439 16.6136C11.6041 16.7616 11.8864 16.8355 12.1907 16.8355ZM18.9383 21.8493C18.4973 21.5751 18.0276 21.3684 17.5293 21.2291C17.0309 21.0898 16.5215 21.018 16.0011 21.0137C15.4807 21.0137 14.9713 21.0833 14.473 21.2226C13.9746 21.3618 13.5049 21.5707 13.0639 21.8493H18.9383ZM19.8116 12.3049L18.8457 15.1643H20.7774L19.8116 12.3049ZM19.8116 16.8355C20.1159 16.8355 20.3981 16.7616 20.6583 16.6136C20.9185 16.4656 21.1258 16.2611 21.2802 15.9999H18.3429C18.4973 16.2611 18.7046 16.4656 18.9648 16.6136C19.225 16.7616 19.5072 16.8355 19.8116 16.8355Z" fill="#0E0E0E"/>
</svg>
