<svg width="24" height="24" viewBox="0 0 24 24" fill="none" xmlns="http://www.w3.org/2000/svg">
<path d="M3.02109 17.25H2.25C2.05109 17.25 1.86032 17.171 1.71967 17.0303C1.57902 16.8897 1.5 16.6989 1.5 16.5V5.25C1.5 5.05109 1.57902 4.86032 1.71967 4.71967C1.86032 4.57902 2.05109 4.5 2.25 4.5H15.75C15.9489 4.5 16.1397 4.57902 16.2803 4.71967C16.421 4.86032 16.5 5.05109 16.5 5.25V7.5H20.3555C20.5348 7.49957 20.7083 7.5634 20.8446 7.67992C20.9809 7.79645 21.071 7.95795 21.0984 8.13516L22.3664 16.3852C22.383 16.492 22.3762 16.6012 22.3466 16.7053C22.317 16.8093 22.2653 16.9057 22.1949 16.9878C22.1246 17.07 22.0373 17.136 21.939 17.1812C21.8408 17.2265 21.7339 17.2499 21.6258 17.25H19.4813C19.5327 17.7213 19.4843 18.1982 19.3391 18.6495C19.1939 19.1008 18.9553 19.5165 18.6388 19.8695C18.3223 20.2224 17.9349 20.5047 17.502 20.698C17.0691 20.8913 16.6003 20.9912 16.1262 20.9912C15.6521 20.9912 15.1833 20.8913 14.7504 20.698C14.3174 20.5047 13.9301 20.2224 13.6136 19.8695C13.297 19.5165 13.0584 19.1008 12.9133 18.6495C12.7681 18.1982 12.7197 17.7213 12.7711 17.25H9.72891C9.78034 17.7213 9.73191 18.1982 9.58675 18.6495C9.44159 19.1008 9.20297 19.5165 8.88644 19.8695C8.56991 20.2224 8.18256 20.5047 7.74964 20.698C7.31672 20.8913 6.84793 20.9912 6.37383 20.9912C5.89973 20.9912 5.43094 20.8913 4.99802 20.698C4.5651 20.5047 4.17775 20.2224 3.86122 19.8695C3.54468 19.5165 3.30606 19.1008 3.16091 18.6495C3.01575 18.1982 2.96731 17.7213 3.01875 17.25H3.02109ZM3.56953 15.75C3.87794 15.2888 4.29529 14.9108 4.78462 14.6494C5.27396 14.3879 5.8202 14.2512 6.375 14.2512C6.9298 14.2512 7.47604 14.3879 7.96538 14.6494C8.45472 14.9108 8.87206 15.2888 9.18047 15.75H13.3195C13.7203 15.15 14.3109 14.6859 15.0023 14.4422V6H3V15.75H3.56953ZM18.9305 15.75H20.7516L20.2898 12.75H16.5V14.2711C16.9884 14.3258 17.4589 14.4865 17.8787 14.7419C18.2985 14.9974 18.6574 15.3414 18.9305 15.75ZM20.0625 11.25L19.718 9H16.5V11.25H20.0625ZM16.125 19.5C16.6223 19.5 17.0992 19.3025 17.4508 18.9508C17.8025 18.5992 18 18.1223 18 17.625C18 17.1277 17.8025 16.6508 17.4508 16.2992C17.0992 15.9475 16.6223 15.75 16.125 15.75C15.6277 15.75 15.1508 15.9475 14.7992 16.2992C14.4475 16.6508 14.25 17.1277 14.25 17.625C14.25 18.1223 14.4475 18.5992 14.7992 18.9508C15.1508 19.3025 15.6277 19.5 16.125 19.5ZM6.375 19.5C6.87228 19.5 7.34919 19.3025 7.70083 18.9508C8.05246 18.5992 8.25 18.1223 8.25 17.625C8.25 17.1277 8.05246 16.6508 7.70083 16.2992C7.34919 15.9475 6.87228 15.75 6.375 15.75C5.87772 15.75 5.40081 15.9475 5.04918 16.2992C4.69754 16.6508 4.5 17.1277 4.5 17.625C4.5 18.1223 4.69754 18.5992 5.04918 18.9508C5.40081 19.3025 5.87772 19.5 6.375 19.5Z" fill="#D6D6D6"/>
</svg>
