<svg width="131" height="62" viewBox="0 0 131 62" fill="none" xmlns="http://www.w3.org/2000/svg">
<rect width="121.655" height="68" rx="7" fill="#FEAE00"/>
<path d="M57.8359 35C57.8359 35.5304 57.6252 36.0391 57.2502 36.4142C56.8751 36.7893 56.3664 37 55.8359 37C55.3055 37 54.7968 36.7893 54.4217 36.4142C54.0467 36.0391 53.8359 35.5304 53.8359 35C53.8359 34.4696 54.0467 33.9609 54.4217 33.5858C54.7968 33.2107 55.3055 33 55.8359 33C56.3664 33 56.8751 33.2107 57.2502 33.5858C57.6252 33.9609 57.8359 34.4696 57.8359 35ZM67.8359 35C67.8359 35.5304 67.6252 36.0391 67.2502 36.4142C66.8751 36.7893 66.3664 37 65.8359 37C65.3055 37 64.7968 36.7893 64.4217 36.4142C64.0467 36.0391 63.8359 35.5304 63.8359 35C63.8359 34.4696 64.0467 33.9609 64.4217 33.5858C64.7968 33.2107 65.3055 33 65.8359 33C66.3664 33 66.8751 33.2107 67.2502 33.5858C67.6252 33.9609 67.8359 34.4696 67.8359 35Z" stroke="white" stroke-width="1.5"/>
<path d="M50.8359 28H66.8359M52.4709 23.42C51.9909 24.2 51.0519 26.26 50.8359 28C50.8359 28.78 50.8159 31.04 50.8399 33.26C50.8759 33.98 50.9959 34.58 53.8379 35M57.8359 28V23M63.8259 35H57.8309M50.8519 23H61.0689C61.0689 23 61.6089 23 62.0889 23.048C62.9879 23.132 63.7429 23.54 64.4989 24.56C65.2989 25.64 65.9139 27.008 66.7289 27.74C68.0839 28.956 70.6619 28.58 70.8059 31.16C70.8419 32.48 70.8419 33.92 70.7819 34.16C70.6859 34.867 70.1409 34.982 69.4629 35C68.8749 35.016 68.1659 34.972 67.8199 35" stroke="white" stroke-width="1.5" stroke-linecap="round"/>
</svg>
