<svg width="24" height="24" viewBox="0 0 24 24" fill="none" xmlns="http://www.w3.org/2000/svg">
<circle cx="12" cy="12" r="11.6996" stroke="white" stroke-width="0.600895"></circle>
<path d="M14.7784 9.68686L15.629 12.1975H16.0385V12.6996H15.951C15.898 12.8487 15.8238 12.9846 15.7284 13.1076C15.633 13.2305 15.5217 13.3364 15.3945 13.4253C15.2673 13.5142 15.1295 13.5822 14.9811 13.6293C14.8327 13.6764 14.6763 13.7012 14.512 13.7038C14.3504 13.7038 14.1954 13.6803 14.047 13.6332C13.8985 13.5861 13.7607 13.5181 13.6335 13.4292C13.5063 13.3403 13.395 13.2344 13.2996 13.1115C13.2042 12.9886 13.1287 12.8513 13.073 12.6996H12.9856V12.1975H13.395L14.2457 9.68686H12.4768V15.218C12.9193 15.2468 13.3381 15.3449 13.7329 15.5122C14.1278 15.6796 14.4895 15.9137 14.8181 16.2144H15.5297V16.7166H8.91507V16.2144H9.62661C9.95257 15.9163 10.313 15.6835 10.7078 15.5162C11.1027 15.3488 11.5227 15.2494 11.968 15.218V9.68686H10.199L11.0497 12.1975H11.4591V12.6996H11.3717C11.3187 12.8487 11.2445 12.9846 11.1491 13.1076C11.0537 13.2305 10.9424 13.3364 10.8152 13.4253C10.688 13.5142 10.5502 13.5822 10.4018 13.6293C10.2534 13.6764 10.097 13.7012 9.9327 13.7038C9.77104 13.7038 9.61601 13.6803 9.46761 13.6332C9.3192 13.5861 9.1814 13.5181 9.0542 13.4292C8.92699 13.3403 8.81569 13.2344 8.72028 13.1115C8.62488 12.9886 8.54935 12.8513 8.4937 12.6996H8.40625V12.1975H8.81569L9.66636 9.68686H8.40625V9.18474H11.968V8.68262H12.4768V9.18474H16.0385V9.68686H14.7784ZM9.9327 10.4793L9.35233 12.1975H10.5131L9.9327 10.4793ZM9.9327 13.2017C10.1156 13.2017 10.2852 13.1572 10.4415 13.0683C10.5979 12.9794 10.7224 12.8565 10.8152 12.6996H9.05022C9.14297 12.8565 9.26753 12.9794 9.42388 13.0683C9.58024 13.1572 9.74984 13.2017 9.9327 13.2017ZM13.9873 16.2144C13.7223 16.0497 13.4401 15.9254 13.1406 15.8418C12.8412 15.7581 12.5351 15.7149 12.2224 15.7123C11.9097 15.7123 11.6036 15.7542 11.3041 15.8378C11.0047 15.9215 10.7224 16.0471 10.4574 16.2144H13.9873ZM14.512 10.4793L13.9317 12.1975H15.0924L14.512 10.4793ZM14.512 13.2017C14.6949 13.2017 14.8645 13.1572 15.0209 13.0683C15.1772 12.9794 15.3018 12.8565 15.3945 12.6996H13.6296C13.7223 12.8565 13.8469 12.9794 14.0032 13.0683C14.1596 13.1572 14.3292 13.2017 14.512 13.2017Z" fill="white"></path>
</svg>
