<svg width="32" height="32" viewBox="0 0 32 32" fill="none" xmlns="http://www.w3.org/2000/svg">
<path d="M15.9993 2.66699C8.63935 2.66699 2.66602 8.64033 2.66602 16.0003C2.66602 23.3603 8.63935 29.3337 15.9993 29.3337C23.3593 29.3337 29.3327 23.3603 29.3327 16.0003C29.3327 8.64033 23.3593 2.66699 15.9993 2.66699ZM22.186 11.7337C21.986 13.8403 21.1193 18.9603 20.6793 21.3203C20.4927 22.3203 20.1193 22.6537 19.7727 22.6937C18.9993 22.7603 18.4127 22.187 17.666 21.6937C16.4927 20.9203 15.826 20.4403 14.6927 19.6937C13.3727 18.827 14.226 18.347 14.986 17.5737C15.186 17.3737 18.5993 14.267 18.666 13.987C18.6753 13.9446 18.674 13.9006 18.6624 13.8587C18.6508 13.8169 18.6292 13.7785 18.5993 13.747C18.5193 13.6803 18.4127 13.707 18.3193 13.7203C18.1993 13.747 16.3327 14.987 12.6927 17.4403C12.1593 17.8003 11.6793 17.987 11.2527 17.9737C10.7727 17.9603 9.86602 17.707 9.18602 17.4803C8.34602 17.2137 7.69268 17.067 7.74602 16.6003C7.77268 16.3603 8.10602 16.1203 8.73268 15.867C12.626 14.1737 15.2127 13.0537 16.506 12.5203C20.2127 10.9737 20.9727 10.707 21.4793 10.707C21.586 10.707 21.8393 10.7337 21.9993 10.867C22.1327 10.9737 22.1727 11.1203 22.186 11.227C22.1727 11.307 22.1993 11.547 22.186 11.7337Z" fill="#FEAE00"/>
</svg>
