<svg width="26" height="26" viewBox="0 0 26 26" fill="none" xmlns="http://www.w3.org/2000/svg">
<g clip-path="url(#clip0_59_1771)">
<path d="M25.9411 11.8828L24.5192 8.32812C24.3986 8.02737 24.1904 7.76976 23.9217 7.58868C23.653 7.4076 23.3361 7.31138 23.012 7.3125H19.5V6.5C19.5 6.28451 19.4144 6.07785 19.262 5.92548C19.1097 5.7731 18.903 5.6875 18.6875 5.6875H3.25C2.81902 5.6875 2.4057 5.8587 2.10095 6.16345C1.7962 6.4682 1.625 6.88152 1.625 7.3125V18.6875C1.625 19.1185 1.7962 19.5318 2.10095 19.8365C2.4057 20.1413 2.81902 20.3125 3.25 20.3125H4.97656C5.15556 21.0116 5.56213 21.6312 6.13219 22.0737C6.70225 22.5162 7.40336 22.7564 8.125 22.7564C8.84664 22.7564 9.54775 22.5162 10.1178 22.0737C10.6879 21.6312 11.0944 21.0116 11.2734 20.3125H16.3516C16.5306 21.0116 16.9371 21.6312 17.5072 22.0737C18.0772 22.5162 18.7784 22.7564 19.5 22.7564C20.2216 22.7564 20.9228 22.5162 21.4928 22.0737C22.0629 21.6312 22.4694 21.0116 22.6484 20.3125H24.375C24.806 20.3125 25.2193 20.1413 25.524 19.8365C25.8288 19.5318 26 19.1185 26 18.6875V12.1875C26.0004 12.0831 25.9804 11.9796 25.9411 11.8828ZM19.5 8.9375H23.012L23.987 11.375H19.5V8.9375ZM3.25 7.3125H17.875V13.8125H3.25V7.3125ZM8.125 21.125C7.80361 21.125 7.48943 21.0297 7.2222 20.8511C6.95497 20.6726 6.74669 20.4188 6.6237 20.1219C6.5007 19.8249 6.46852 19.4982 6.53122 19.183C6.59392 18.8678 6.74869 18.5782 6.97595 18.351C7.20321 18.1237 7.49276 17.9689 7.80798 17.9062C8.1232 17.8435 8.44993 17.8757 8.74686 17.9987C9.04379 18.1217 9.29758 18.33 9.47614 18.5972C9.6547 18.8644 9.75 19.1786 9.75 19.5C9.75 19.931 9.57879 20.3443 9.27405 20.649C8.9693 20.9538 8.55598 21.125 8.125 21.125ZM16.3516 18.6875H11.2734C11.0944 17.9884 10.6879 17.3688 10.1178 16.9263C9.54775 16.4838 8.84664 16.2436 8.125 16.2436C7.40336 16.2436 6.70225 16.4838 6.13219 16.9263C5.56213 17.3688 5.15556 17.9884 4.97656 18.6875H3.25V15.4375H17.875V16.6877C17.5014 16.9036 17.1743 17.1916 16.9128 17.5349C16.6513 17.8782 16.4605 18.2699 16.3516 18.6875ZM19.5 21.125C19.1786 21.125 18.8644 21.0297 18.5972 20.8511C18.33 20.6726 18.1217 20.4188 17.9987 20.1219C17.8757 19.8249 17.8435 19.4982 17.9062 19.183C17.9689 18.8678 18.1237 18.5782 18.351 18.351C18.5782 18.1237 18.8678 17.9689 19.183 17.9062C19.4982 17.8435 19.8249 17.8757 20.1219 17.9987C20.4188 18.1217 20.6726 18.33 20.8511 18.5972C21.0297 18.8644 21.125 19.1786 21.125 19.5C21.125 19.931 20.9538 20.3443 20.649 20.649C20.3443 20.9538 19.931 21.125 19.5 21.125ZM24.375 18.6875H22.6484C22.4673 17.9901 22.06 17.3725 21.4902 16.9314C20.9205 16.4903 20.2205 16.2507 19.5 16.25V13H24.375V18.6875Z" fill="white"/>
</g>
<defs>
<clipPath id="clip0_59_1771">
<rect width="26" height="26" fill="white"/>
</clipPath>
</defs>
</svg>
