<svg width="19" height="24" viewBox="0 0 19 24" fill="none" xmlns="http://www.w3.org/2000/svg">
<path fill-rule="evenodd" clip-rule="evenodd" d="M8.29368 22.9944C8.29368 22.9944 0 16.0095 0 9.13653C0 6.71337 0.962596 4.38946 2.67603 2.67603C4.38946 0.962596 6.71337 0 9.13653 0C11.5597 0 13.8836 0.962596 15.597 2.67603C17.3105 4.38946 18.2731 6.71337 18.2731 9.13653C18.2731 16.0095 9.97937 22.9944 9.97937 22.9944C9.51798 23.4192 8.7585 23.4146 8.29368 22.9944ZM9.13653 13.1338C9.66145 13.1338 10.1812 13.0304 10.6662 12.8295C11.1512 12.6286 11.5918 12.3342 11.963 11.963C12.3342 11.5918 12.6286 11.1512 12.8295 10.6662C13.0304 10.1812 13.1338 9.66145 13.1338 9.13653C13.1338 8.6116 13.0304 8.09182 12.8295 7.60685C12.6286 7.12189 12.3342 6.68124 11.963 6.31006C11.5918 5.93888 11.1512 5.64445 10.6662 5.44357C10.1812 5.24269 9.66145 5.1393 9.13653 5.1393C8.0764 5.1393 7.05969 5.56043 6.31006 6.31006C5.56043 7.05969 5.1393 8.0764 5.1393 9.13653C5.1393 10.1967 5.56043 11.2134 6.31006 11.963C7.05969 12.7126 8.0764 13.1338 9.13653 13.1338Z" fill="#FEAE00"></path>
</svg>
