<svg width="32" height="32" viewBox="0 0 32 32" fill="none" xmlns="http://www.w3.org/2000/svg">
<path d="M9.17712 30.4142L27.1771 12.4142M27.1771 12.4142C28.0433 12.0005 28.7976 11.3851 29.3766 10.6195C29.9557 9.85398 30.3426 8.96067 30.5049 8.01461C30.6673 7.06855 30.6002 6.09736 30.3094 5.18257C30.0187 4.26778 29.5127 3.4361 28.834 2.75736C28.1552 2.07862 27.3236 1.57263 26.4088 1.28188C25.494 0.991124 24.5228 0.924091 23.5767 1.08641C22.6307 1.24873 21.7374 1.63566 20.9718 2.21471C20.2062 2.79377 19.5908 3.54804 19.1771 4.41421L1.17712 22.4142C0.963122 23.1092 0.942637 23.8494 1.11786 24.5551C1.29307 25.2609 1.65736 25.9056 2.17157 26.4198C2.68577 26.934 3.33042 27.2983 4.03619 27.4735C4.74196 27.6487 5.48213 27.6282 6.17712 27.4142L27.1771 12.4142Z" stroke="#F5B800" stroke-width="2" stroke-linecap="round" stroke-linejoin="round"/>
</svg>
