<svg width="45" height="45" viewBox="0 0 45 45" fill="none" xmlns="http://www.w3.org/2000/svg">
<path fill-rule="evenodd" clip-rule="evenodd" d="M20.7304 40.742C20.7304 40.742 7.36328 29.4843 7.36328 18.407C7.36328 14.5015 8.91472 10.756 11.6763 7.99442C14.4379 5.23284 18.1834 3.6814 22.0889 3.6814C25.9943 3.6814 29.7398 5.23284 32.5014 7.99442C35.263 10.756 36.8145 14.5015 36.8145 18.407C36.8145 29.4843 23.4473 40.742 23.4473 40.742C22.7037 41.4268 21.4796 41.4194 20.7304 40.742ZM22.0889 24.8494C22.9349 24.8494 23.7726 24.6828 24.5543 24.359C25.3359 24.0353 26.0461 23.5607 26.6444 22.9625C27.2426 22.3642 27.7171 21.654 28.0409 20.8724C28.3647 20.0908 28.5313 19.253 28.5313 18.407C28.5313 17.5609 28.3647 16.7232 28.0409 15.9416C27.7171 15.1599 27.2426 14.4497 26.6444 13.8515C26.0461 13.2533 25.3359 12.7787 24.5543 12.4549C23.7726 12.1312 22.9349 11.9645 22.0889 11.9645C20.3802 11.9645 18.7416 12.6433 17.5334 13.8515C16.3252 15.0597 15.6464 16.6983 15.6464 18.407C15.6464 20.1156 16.3252 21.7543 17.5334 22.9625C18.7416 24.1707 20.3802 24.8494 22.0889 24.8494Z" fill="#FEAE00"/>
</svg>
