<svg width="32" height="32" viewBox="0 0 32 32" fill="none" xmlns="http://www.w3.org/2000/svg">
<path d="M15.9993 2.6665C8.63935 2.6665 2.66602 8.63984 2.66602 15.9998C2.66602 23.3598 8.63935 29.3332 15.9993 29.3332C23.3593 29.3332 29.3327 23.3598 29.3327 15.9998C29.3327 8.63984 23.3593 2.6665 15.9993 2.6665ZM22.186 11.7332C21.986 13.8398 21.1193 18.9598 20.6793 21.3198C20.4927 22.3198 20.1193 22.6532 19.7727 22.6932C18.9993 22.7598 18.4127 22.1865 17.666 21.6932C16.4927 20.9198 15.826 20.4398 14.6927 19.6932C13.3727 18.8265 14.226 18.3465 14.986 17.5732C15.186 17.3732 18.5993 14.2665 18.666 13.9865C18.6753 13.9441 18.674 13.9001 18.6624 13.8582C18.6508 13.8164 18.6292 13.7781 18.5993 13.7465C18.5193 13.6798 18.4127 13.7065 18.3193 13.7198C18.1993 13.7465 16.3327 14.9865 12.6927 17.4398C12.1593 17.7998 11.6793 17.9865 11.2527 17.9732C10.7727 17.9598 9.86601 17.7065 9.18602 17.4798C8.34601 17.2132 7.69268 17.0665 7.74602 16.5998C7.77268 16.3598 8.10602 16.1198 8.73268 15.8665C12.626 14.1732 15.2127 13.0532 16.506 12.5198C20.2127 10.9732 20.9727 10.7065 21.4793 10.7065C21.586 10.7065 21.8393 10.7332 21.9993 10.8665C22.1327 10.9732 22.1727 11.1198 22.186 11.2265C22.1727 11.3065 22.1993 11.5465 22.186 11.7332Z" fill="#FEAE00"/>
</svg>
