<svg width="584" height="584" viewBox="0 0 584 584" fill="none" xmlns="http://www.w3.org/2000/svg">
<path fill-rule="evenodd" clip-rule="evenodd" d="M273.858 538.247C273.858 538.247 97.2637 389.521 97.2637 243.178C97.2637 191.583 117.76 142.101 154.243 105.617C190.727 69.1339 240.209 48.6377 291.804 48.6377C343.399 48.6377 392.881 69.1339 429.365 105.617C465.848 142.101 486.344 191.583 486.344 243.178C486.344 389.521 309.75 538.247 309.75 538.247C299.926 547.293 283.755 547.196 273.858 538.247ZM291.804 328.289C302.981 328.289 314.049 326.088 324.375 321.811C334.701 317.534 344.084 311.264 351.987 303.361C359.89 295.458 366.159 286.075 370.437 275.749C374.714 265.423 376.915 254.355 376.915 243.178C376.915 232.001 374.714 220.934 370.437 210.607C366.159 200.281 359.89 190.899 351.987 182.995C344.084 175.092 334.701 168.823 324.375 164.545C314.049 160.268 302.981 158.067 291.804 158.067C269.231 158.067 247.583 167.034 231.621 182.995C215.66 198.957 206.693 220.605 206.693 243.178C206.693 265.751 215.66 287.399 231.621 303.361C247.583 319.322 269.231 328.289 291.804 328.289Z" fill="#0F0F0F"/>
</svg>
