<svg width="45" height="45" viewBox="0 0 45 45" fill="none" xmlns="http://www.w3.org/2000/svg">
<path d="M14.9341 11.6288C14.5856 11.5777 14.2302 11.6479 13.9272 11.8275H13.901C13.1978 12.24 12.5641 12.7594 12.0241 13.3706C11.5741 13.89 11.3303 14.415 11.2666 14.9212C11.2291 15.2212 11.2553 15.525 11.3435 15.8119L11.3772 15.8306C11.8835 17.3175 12.5435 18.7481 13.3497 20.0944C14.3898 21.985 15.669 23.7338 17.156 25.2975L17.201 25.3612L17.2722 25.4137L17.3153 25.4644L17.3678 25.5094C18.9372 27.0006 20.69 28.286 22.5841 29.3344C24.7497 30.5137 26.0641 31.0706 26.8535 31.3031V31.3144C27.0841 31.3856 27.2941 31.4175 27.506 31.4175C28.1786 31.3693 28.8153 31.0958 29.3135 30.6412C29.9228 30.1012 30.4385 29.4656 30.8397 28.7587V28.7456C31.2166 28.0331 31.0891 27.3619 30.5453 26.9062C29.4541 25.9508 28.2729 25.1031 27.0185 24.375C26.1785 23.9194 25.3253 24.195 24.9803 24.6562L24.2435 25.5862C23.8647 26.0475 23.1785 25.9837 23.1785 25.9837L23.1597 25.995C18.0391 24.6881 16.6722 19.5038 16.6722 19.5038C16.6722 19.5038 16.6085 18.7987 17.0828 18.4387L18.0053 17.6962C18.4478 17.3362 18.7553 16.485 18.281 15.645C17.5545 14.3914 16.7087 13.2109 15.7553 12.12C15.5468 11.8638 15.2547 11.6893 14.9303 11.6269M23.5872 9.375C23.3386 9.375 23.1001 9.47377 22.9243 9.64959C22.7485 9.8254 22.6497 10.0639 22.6497 10.3125C22.6497 10.5611 22.7485 10.7996 22.9243 10.9754C23.1001 11.1512 23.3386 11.25 23.5872 11.25C25.9572 11.25 27.926 12.0244 29.4841 13.5094C30.2847 14.3212 30.9091 15.2831 31.3178 16.3369C31.7285 17.3925 31.916 18.5194 31.8672 19.6481C31.8568 19.8968 31.9455 20.1394 32.114 20.3226C32.2824 20.5058 32.5167 20.6146 32.7653 20.625C33.014 20.6354 33.2566 20.5467 33.4398 20.3783C33.623 20.2098 33.7318 19.9755 33.7422 19.7269C33.7982 18.3385 33.5678 16.9536 33.0653 15.6581C32.5606 14.3561 31.792 13.1726 30.8078 12.1819L30.7891 12.1631C28.856 10.3162 26.411 9.375 23.5872 9.375Z" fill="#FEAE00"/>
<path d="M23.5215 12.4574C23.2728 12.4574 23.0344 12.5562 22.8586 12.732C22.6828 12.9078 22.584 13.1463 22.584 13.3949C22.584 13.6436 22.6828 13.882 22.8586 14.0579C23.0344 14.2337 23.2728 14.3324 23.5215 14.3324H23.5534C25.2634 14.4543 26.5084 15.0243 27.3802 15.9599C28.2746 16.9237 28.7377 18.1218 28.7021 19.6031C28.6964 19.8517 28.7897 20.0924 28.9614 20.2723C29.1332 20.4522 29.3694 20.5564 29.618 20.5621C29.8667 20.5678 30.1074 20.4746 30.2873 20.3028C30.4671 20.131 30.5714 19.8948 30.5771 19.6462C30.6221 17.7018 29.9959 16.0237 28.7546 14.6849V14.6812C27.4852 13.3199 25.7434 12.5999 23.6471 12.4593L23.6152 12.4556L23.5215 12.4574Z" fill="#FEAE00"/>
<path d="M23.4867 15.5979C23.3612 15.5868 23.2348 15.6011 23.115 15.64C22.9952 15.6788 22.8845 15.7415 22.7894 15.8241C22.6943 15.9067 22.6169 16.0076 22.5617 16.1208C22.5065 16.234 22.4746 16.3572 22.4681 16.483C22.4615 16.6087 22.4804 16.7345 22.5235 16.8529C22.5667 16.9712 22.6332 17.0796 22.7192 17.1717C22.8052 17.2637 22.9088 17.3375 23.0239 17.3886C23.139 17.4397 23.2633 17.4671 23.3892 17.4691C24.1729 17.5104 24.6736 17.7466 24.9886 18.0635C25.3054 18.3822 25.5417 18.8941 25.5848 19.6947C25.5872 19.8206 25.6148 19.9446 25.6661 20.0595C25.7174 20.1744 25.7913 20.2778 25.8834 20.3635C25.9755 20.4493 26.084 20.5156 26.2022 20.5585C26.3205 20.6015 26.4462 20.6202 26.5719 20.6135C26.6975 20.6068 26.8206 20.5749 26.9336 20.5197C27.0467 20.4645 27.1475 20.387 27.23 20.292C27.3125 20.197 27.375 20.0864 27.4139 19.9667C27.4527 19.847 27.4671 19.7207 27.4561 19.5954C27.3961 18.4704 27.0436 17.4766 26.3217 16.7454C25.5961 16.0141 24.6079 15.6579 23.4867 15.5979Z" fill="#FEAE00"/>
<path fill-rule="evenodd" clip-rule="evenodd" d="M13.2513 4.46999C19.2177 3.13631 25.4049 3.13631 31.3713 4.46999L32.0069 4.61061C33.7506 5.00151 35.3519 5.86767 36.6334 7.11307C37.9149 8.35847 38.8264 9.93444 39.2669 11.6662C40.7828 17.634 40.7828 23.886 39.2669 29.8537C38.8264 31.5855 37.9149 33.1615 36.6334 34.4069C35.3519 35.6523 33.7506 36.5185 32.0069 36.9094L31.3694 37.05C27.6324 37.8845 23.7981 38.1993 19.975 37.9856L15.0007 42.4369C14.8131 42.6048 14.5839 42.7193 14.3371 42.7684C14.0902 42.8175 13.8346 42.7995 13.5971 42.7161C13.3596 42.6328 13.1488 42.4873 12.9867 42.2947C12.8246 42.1021 12.7172 41.8695 12.6757 41.6212L11.8525 36.705C10.2746 36.2131 8.84892 35.3251 7.71159 34.1257C6.57426 32.9263 5.76316 31.4556 5.35565 29.8537C3.83978 23.886 3.83978 17.634 5.35565 11.6662C5.79617 9.93444 6.70769 8.35847 7.98917 7.11307C9.27064 5.86767 10.872 5.00151 12.6157 4.61061L13.2513 4.46999ZM30.7582 7.21311C25.1955 5.96962 19.427 5.96962 13.8644 7.21311L13.2269 7.35561C11.9912 7.63346 10.8565 8.24785 9.94843 9.13077C9.04035 10.0137 8.39434 11.1307 8.0819 12.3581C6.68127 17.8718 6.68127 23.6482 8.0819 29.1619C8.39449 30.3895 9.04078 31.5067 9.94921 32.3896C10.8576 33.2726 11.9927 33.8868 13.2288 34.1644L13.3975 34.2019C13.6705 34.2629 13.9191 34.404 14.1115 34.6071C14.3039 34.8101 14.4313 35.066 14.4775 35.3419L15.0288 38.6381L18.5388 35.4975C18.6789 35.3717 18.843 35.2753 19.0211 35.2141C19.1992 35.153 19.3878 35.1282 19.5757 35.1412C23.3239 35.4059 27.0907 35.1248 30.7582 34.3069L31.3938 34.1644C32.6298 33.8868 33.7649 33.2726 34.6733 32.3896C35.5818 31.5067 36.2281 30.3895 36.5407 29.1619C37.9394 23.6494 37.9394 17.8725 36.5407 12.3581C36.2281 11.1305 35.5818 10.0133 34.6733 9.13035C33.7649 8.24741 32.6298 7.63315 31.3938 7.35561L30.7582 7.21311Z" fill="#FEAE00"/>
</svg>
