<svg width="427" height="146" viewBox="0 0 427 146" fill="none" xmlns="http://www.w3.org/2000/svg">
<g clip-path="url(#clip0_211_1914)">
<path d="M199.562 48.3818L182.217 145.874H212.382L229.574 48.3818H199.557H199.562Z" fill="url(#paint0_linear_211_1914)"/>
<path d="M389.445 48.3818L372.1 145.874H402.265L419.466 48.3818H389.445Z" fill="url(#paint1_linear_211_1914)"/>
<path d="M361.76 87.7261C363.415 85.6814 364.746 83.3121 365.761 80.5905C366.786 77.8689 367.291 74.7578 367.291 71.2525C367.291 63.6858 364.305 57.9782 358.338 54.1345C352.352 50.3094 344.072 48.376 333.482 48.376H248.416L231.182 145.873H316.864C326.188 145.873 333.769 144.922 339.593 143.04C345.425 141.139 350.016 138.663 353.372 135.598C356.729 132.533 358.996 129.093 360.216 125.249C361.426 121.406 362.047 117.497 362.047 113.514C362.047 108.767 360.897 104.872 358.612 101.858C356.34 98.8445 353.442 96.8183 349.955 95.7473C352.074 95.0657 354.17 94.0642 356.21 92.7521C358.255 91.4353 360.1 89.7662 361.755 87.7261H361.76ZM329.545 118.772C327.797 120.135 325.071 120.817 321.39 120.817H265.858L268.246 107.408H323.722C329.351 107.408 332.17 109.258 332.17 112.939C332.17 115.462 331.293 117.414 329.545 118.772ZM334.65 84.8885C332.707 86.0059 330.473 86.5623 327.941 86.5623H271.946L274.218 73.7377H330.13C332.077 73.7377 333.792 74.1133 335.299 74.8458C336.811 75.5691 337.571 76.8998 337.571 78.8472C337.571 81.7635 336.602 83.7758 334.655 84.8932L334.65 84.8885Z" fill="url(#paint2_linear_211_1914)"/>
<path d="M6.45403 119.289H4.43251C1.9845 119.289 0 121.273 0 123.721C0 126.169 1.9845 128.154 4.43251 128.154H6.45403C8.90204 128.154 10.8865 126.169 10.8865 123.721C10.8865 121.273 8.90204 119.289 6.45403 119.289Z" fill="url(#paint3_linear_211_1914)"/>
<path d="M18.9972 83.8325H16.2802C13.8322 83.8325 11.8477 85.817 11.8477 88.265C11.8477 90.713 13.8322 92.6975 16.2802 92.6975H18.9972C21.4452 92.6975 23.4297 90.713 23.4297 88.265C23.4297 85.817 21.4452 83.8325 18.9972 83.8325Z" fill="url(#paint4_linear_211_1914)"/>
<path d="M27.2376 52.8158C27.2376 54.0399 26.7414 55.148 25.944 55.9501C25.1419 56.7522 24.0337 57.253 22.8097 57.253H22.7587C20.3106 57.253 18.3262 55.2639 18.3262 52.8204C18.3262 51.5964 18.8223 50.4883 19.629 49.6862C20.4312 48.884 21.5393 48.3833 22.7633 48.3833H22.8143C25.2624 48.3833 27.2422 50.3724 27.2422 52.8158H27.2376Z" fill="url(#paint5_linear_211_1914)"/>
<path d="M171.882 87.7276C173.537 85.6829 174.868 83.3136 175.883 80.592C176.908 77.8703 177.404 74.7592 177.404 71.254C177.404 63.6872 174.427 57.9797 168.46 54.136C162.474 50.3109 154.193 48.3774 143.604 48.3774H37.0239C35.7999 48.3774 34.6918 48.8736 33.8897 49.6803C33.0875 50.4824 32.5961 51.5906 32.5961 52.8146C32.5961 55.2627 34.5759 57.2471 37.0239 57.2471H46.4963L46.4871 57.312C48.5642 57.6829 50.136 59.4912 50.136 61.675C50.136 62.899 49.6445 64.0071 48.8424 64.8093C48.0403 65.6114 46.9322 66.1121 45.7081 66.1121H25.4373C24.2133 66.1121 23.1051 66.6036 22.303 67.4057C21.5009 68.2078 21.0094 69.316 21.0094 70.54C21.0094 72.9881 22.9892 74.9725 25.4373 74.9725H48.5225C50.9706 74.9725 52.955 76.9523 52.955 79.4004C52.955 80.6244 52.4589 81.7325 51.6522 82.5347C50.85 83.3368 49.7419 83.8375 48.5179 83.8375H33.3147C32.0907 83.8375 30.9826 84.329 30.1804 85.1311C29.3783 85.9332 28.8869 87.0414 28.8869 88.2654C28.8869 90.7135 30.8667 92.6979 33.3147 92.6979H56.2238C58.6718 92.6979 60.6516 94.6777 60.6516 97.1258C60.6516 98.3545 60.1602 99.4626 59.358 100.265C58.5559 101.067 57.4478 101.558 56.2238 101.558H34.562C33.3379 101.558 32.2298 102.05 31.4277 102.852C30.6256 103.654 30.1248 104.762 30.1248 105.991C30.1248 108.439 32.1139 110.419 34.5573 110.419H39.4952C41.9479 110.419 43.9277 112.408 43.9277 114.851C43.9277 116.075 43.4362 117.183 42.6341 117.985C41.832 118.788 40.7239 119.279 39.4952 119.279H22.0665C20.8425 119.279 19.7344 119.775 18.9323 120.582C18.1348 121.384 17.6387 122.492 17.6387 123.716C17.6387 126.164 19.6185 128.144 22.0665 128.144H48.1052C50.5533 128.144 52.5331 130.133 52.5331 132.577C52.5331 133.801 52.037 134.909 51.2395 135.711C50.4374 136.513 49.3293 137.004 48.1052 137.004H41.3684C40.1443 137.004 39.0362 137.501 38.2341 138.307C37.432 139.109 36.9405 140.218 36.9405 141.442C36.9405 143.867 38.8832 145.832 41.3035 145.869H126.986C136.31 145.869 143.891 144.919 149.71 143.037C155.552 141.136 160.137 138.66 163.494 135.595C166.851 132.53 169.118 129.09 170.338 125.246C171.548 121.403 172.169 117.494 172.169 113.511C172.169 108.763 171.019 104.869 168.733 101.855C166.462 98.8413 163.559 96.8151 160.077 95.7441C162.196 95.0625 164.292 94.061 166.332 92.7489C168.376 91.4321 170.222 89.763 171.877 87.7229L171.882 87.7276ZM139.667 118.774C137.915 120.137 135.188 120.818 131.512 120.818H75.98L78.3678 107.41H133.844C139.472 107.41 142.291 109.26 142.291 112.941C142.291 115.463 141.415 117.415 139.667 118.774ZM144.772 84.89C142.829 86.0074 140.594 86.5638 138.063 86.5638H82.0677L84.3396 73.7392H140.251C142.199 73.7392 143.914 74.1147 145.421 74.8473C146.933 75.5706 147.693 76.9013 147.693 78.8486C147.693 81.765 146.724 83.7772 144.777 84.8947L144.772 84.89Z" fill="url(#paint6_linear_211_1914)"/>
<path d="M289.286 22.3036L282.132 29.8565H267.383C265.102 29.8565 263.015 29.5273 261.128 28.8689C259.241 28.2105 257.632 27.3017 256.302 26.1473C254.971 24.9928 253.937 23.625 253.204 22.0439C252.472 20.4629 252.105 18.752 252.105 16.9067C252.105 14.505 252.648 12.298 253.728 10.2765C254.809 8.25494 256.274 6.52088 258.119 5.07428C259.964 3.62769 262.13 2.50102 264.615 1.69426C267.1 0.88751 269.752 0.48877 272.562 0.48877H293.153L285.952 8.12511H271.203C269.859 8.12511 268.574 8.32912 267.36 8.74177C266.145 9.15442 265.083 9.72471 264.179 10.4526C263.27 11.1852 262.556 12.0383 262.028 13.0213C261.499 14.0042 261.239 15.0799 261.239 16.2483C261.239 17.157 261.42 17.9823 261.787 18.7288C262.153 19.4753 262.663 20.1105 263.321 20.6391C263.98 21.1676 264.763 21.5756 265.672 21.8677C266.581 22.1598 267.587 22.3082 268.7 22.3082H289.29L289.286 22.3036Z" fill="url(#paint7_linear_211_1914)"/>
<path d="M322.567 3.29388C322.071 2.3573 321.417 1.57373 320.611 0.943166C319.804 0.321873 318.719 0.00195312 317.342 0.00195312C315.965 0.00195312 314.667 0.335782 313.609 1.01735C312.552 1.68965 311.653 2.45003 310.883 3.29388L287.357 29.8565H298.114L300.933 26.6619H323.717C324.31 27.7793 324.885 28.8735 325.405 29.8565H336.217L322.567 3.29388ZM307.596 19.109L315.316 10.3599L319.224 18.1354C319.28 18.2327 319.456 18.5851 319.734 19.109H307.596Z" fill="url(#paint8_linear_211_1914)"/>
<path d="M372.763 12.6176C372.452 13.1045 372.044 13.5079 371.534 13.8278C371.02 14.1523 370.426 14.4027 369.735 14.5789C369.045 14.7504 368.321 14.8385 367.561 14.8385H351.097L352.219 8.12023H368.748C370.157 8.12023 371.247 8.36133 372.044 8.84353C372.833 9.33036 373.231 10.0537 373.231 11.0181C373.231 11.6023 373.078 12.1401 372.768 12.6176H372.763ZM380.181 16.4242C381.016 15.4598 381.661 14.3749 382.115 13.174C382.569 11.9778 382.801 10.712 382.801 9.39991C382.801 7.64267 382.388 6.19144 381.572 5.05086C380.752 3.91491 379.69 2.99688 378.387 2.30604C377.084 1.61983 375.638 1.14227 374.043 0.882627C372.448 0.618346 370.885 0.483887 369.364 0.483887H344.624L339.385 29.8562H348.468L349.831 22.0854H363.787L368.97 29.8562H381.127L376.695 24.1487C375.874 23.124 375.211 22.3172 374.696 21.733C374.182 21.1488 373.727 20.6666 373.31 20.2864C374.72 20.0222 376.004 19.5539 377.172 18.8769C378.341 18.2047 379.347 17.3886 380.181 16.4196V16.4242Z" fill="url(#paint9_linear_211_1914)"/>
<path d="M414.709 12.204C417.899 12.204 420.319 12.7697 421.974 13.8917C423.63 15.0184 424.455 16.6783 424.455 18.876C424.455 20.457 424.191 21.9222 423.667 23.2667C423.138 24.6113 422.299 25.7751 421.144 26.758C419.99 27.741 418.497 28.5014 416.666 29.0392C414.839 29.5817 412.618 29.8506 410.017 29.8506H382.666L389.82 22.2977H412.075C413.304 22.2977 414.194 22.0937 414.751 21.6811C415.307 21.273 415.585 20.6425 415.585 19.794C415.585 18.6256 414.663 18.0368 412.817 18.0368H396.793C393.455 18.0368 391.012 17.3923 389.463 16.1033C387.91 14.8144 387.136 13.1035 387.136 10.9661C387.136 9.47311 387.4 8.09143 387.924 6.81639C388.452 5.54134 389.292 4.43322 390.451 3.4781C391.605 2.52761 393.094 1.78577 394.906 1.26184C396.719 0.733278 398.917 0.473633 401.49 0.473633H426.996L419.795 8.10997H399.427C398.198 8.10997 397.303 8.2908 396.747 8.65708C396.191 9.02337 395.913 9.64466 395.913 10.521C395.913 11.6337 396.849 12.1901 398.722 12.1901H414.7L414.709 12.204Z" fill="url(#paint10_linear_211_1914)"/>
</g>
<defs>
<linearGradient id="paint0_linear_211_1914" x1="191.277" y1="97.1302" x2="428.884" y2="97.1302" gradientUnits="userSpaceOnUse">
<stop stop-color="#FEAE00"/>
<stop offset="1" stop-color="#FFEA43"/>
</linearGradient>
<linearGradient id="paint1_linear_211_1914" x1="191.275" y1="-0.000215256" x2="428.883" y2="-0.000215256" gradientUnits="userSpaceOnUse">
<stop stop-color="#FEAE00"/>
<stop offset="1" stop-color="#FFEA43"/>
</linearGradient>
<linearGradient id="paint2_linear_211_1914" x1="0.000312659" y1="97.1243" x2="428.883" y2="97.1243" gradientUnits="userSpaceOnUse">
<stop stop-color="#FEAE00"/>
<stop offset="1" stop-color="#FFEA43"/>
</linearGradient>
<linearGradient id="paint3_linear_211_1914" x1="191.275" y1="123.721" x2="428.882" y2="123.721" gradientUnits="userSpaceOnUse">
<stop stop-color="#FEAE00"/>
<stop offset="1" stop-color="#FFEA43"/>
</linearGradient>
<linearGradient id="paint4_linear_211_1914" x1="191.276" y1="88.265" x2="428.884" y2="88.265" gradientUnits="userSpaceOnUse">
<stop stop-color="#FEAE00"/>
<stop offset="1" stop-color="#FFEA43"/>
</linearGradient>
<linearGradient id="paint5_linear_211_1914" x1="191.273" y1="52.8158" x2="428.88" y2="52.8158" gradientUnits="userSpaceOnUse">
<stop stop-color="#FEAE00"/>
<stop offset="1" stop-color="#FFEA43"/>
</linearGradient>
<linearGradient id="paint6_linear_211_1914" x1="191.276" y1="97.1258" x2="428.884" y2="97.1258" gradientUnits="userSpaceOnUse">
<stop stop-color="#FEAE00"/>
<stop offset="1" stop-color="#FFEA43"/>
</linearGradient>
<linearGradient id="paint7_linear_211_1914" x1="191.274" y1="15.168" x2="428.882" y2="15.168" gradientUnits="userSpaceOnUse">
<stop stop-color="#FEAE00"/>
<stop offset="1" stop-color="#FFEA43"/>
</linearGradient>
<linearGradient id="paint8_linear_211_1914" x1="191.275" y1="14.9315" x2="428.882" y2="14.9315" gradientUnits="userSpaceOnUse">
<stop stop-color="#FEAE00"/>
<stop offset="1" stop-color="#FFEA43"/>
</linearGradient>
<linearGradient id="paint9_linear_211_1914" x1="191.276" y1="15.1677" x2="428.883" y2="15.1677" gradientUnits="userSpaceOnUse">
<stop stop-color="#FEAE00"/>
<stop offset="1" stop-color="#FFEA43"/>
</linearGradient>
<linearGradient id="paint10_linear_211_1914" x1="191.275" y1="15.1668" x2="428.883" y2="15.1668" gradientUnits="userSpaceOnUse">
<stop stop-color="#FEAE00"/>
<stop offset="1" stop-color="#FFEA43"/>
</linearGradient>
<clipPath id="clip0_211_1914">
<rect width="427" height="145.874" fill="white"/>
</clipPath>
</defs>
</svg>
