<svg width="32" height="32" viewBox="0 0 32 32" fill="none" xmlns="http://www.w3.org/2000/svg">
<path d="M16.0007 11.9998C14.9398 11.9998 13.9224 12.4213 13.1723 13.1714C12.4221 13.9216 12.0007 14.939 12.0007 15.9998C12.0007 17.0607 12.4221 18.0781 13.1723 18.8283C13.9224 19.5784 14.9398 19.9998 16.0007 19.9998C17.0615 19.9998 18.079 19.5784 18.8291 18.8283C19.5793 18.0781 20.0007 17.0607 20.0007 15.9998C20.0007 14.939 19.5793 13.9216 18.8291 13.1714C18.079 12.4213 17.0615 11.9998 16.0007 11.9998ZM16.0007 9.33317C17.7688 9.33317 19.4645 10.0355 20.7147 11.2858C21.965 12.536 22.6673 14.2317 22.6673 15.9998C22.6673 17.7679 21.965 19.4636 20.7147 20.7139C19.4645 21.9641 17.7688 22.6665 16.0007 22.6665C14.2326 22.6665 12.5369 21.9641 11.2866 20.7139C10.0364 19.4636 9.33402 17.7679 9.33402 15.9998C9.33402 14.2317 10.0364 12.536 11.2866 11.2858C12.5369 10.0355 14.2326 9.33317 16.0007 9.33317ZM24.6673 8.99984C24.6673 9.44186 24.4918 9.86579 24.1792 10.1783C23.8666 10.4909 23.4427 10.6665 23.0007 10.6665C22.5587 10.6665 22.1347 10.4909 21.8222 10.1783C21.5096 9.86579 21.334 9.44186 21.334 8.99984C21.334 8.55781 21.5096 8.13389 21.8222 7.82133C22.1347 7.50877 22.5587 7.33317 23.0007 7.33317C23.4427 7.33317 23.8666 7.50877 24.1792 7.82133C24.4918 8.13389 24.6673 8.55781 24.6673 8.99984ZM16.0007 5.33317C12.702 5.33317 12.1633 5.3425 10.6287 5.4105C9.58335 5.45984 8.88201 5.59984 8.23135 5.85317C7.68713 6.05366 7.19498 6.37402 6.79135 6.7905C6.37438 7.194 6.05356 7.68616 5.85268 8.2305C5.59935 8.88384 5.45935 9.58384 5.41135 10.6278C5.34202 12.0998 5.33268 12.6145 5.33268 15.9998C5.33268 19.2998 5.34202 19.8372 5.41002 21.3718C5.45935 22.4158 5.59935 23.1185 5.85135 23.7678C6.07802 24.3478 6.34468 24.7652 6.78735 25.2078C7.23668 25.6558 7.65402 25.9238 8.22735 26.1452C8.88602 26.3998 9.58735 26.5412 10.6273 26.5892C12.0993 26.6585 12.614 26.6665 15.9993 26.6665C19.2993 26.6665 19.8367 26.6572 21.3713 26.5892C22.414 26.5398 23.1153 26.3998 23.7673 26.1478C24.3116 25.9473 24.8037 25.627 25.2073 25.2105C25.6567 24.7625 25.9247 24.3452 26.146 23.7705C26.3993 23.1145 26.5407 22.4132 26.5887 21.3705C26.658 19.8998 26.666 19.3838 26.666 15.9998C26.666 12.7012 26.6567 12.1625 26.5887 10.6278C26.5393 9.58517 26.398 8.88117 26.146 8.2305C25.9455 7.68628 25.6252 7.19413 25.2087 6.7905C24.8052 6.37353 24.313 6.05272 23.7687 5.85184C23.1153 5.5985 22.414 5.4585 21.3713 5.4105C19.9007 5.34117 19.386 5.33317 15.9993 5.33317M15.9993 2.6665C19.622 2.6665 20.074 2.67984 21.4967 2.7465C22.9153 2.81317 23.8833 3.03584 24.7327 3.3665C25.6127 3.70517 26.354 4.16384 27.0953 4.90384C27.7736 5.57015 28.2983 6.37647 28.6327 7.2665C28.962 8.11584 29.186 9.08384 29.2527 10.5038C29.3153 11.9252 29.3327 12.3772 29.3327 15.9998C29.3327 19.6225 29.3193 20.0745 29.2527 21.4958C29.186 22.9172 28.962 23.8825 28.6327 24.7332C28.2983 25.6232 27.7736 26.4295 27.0953 27.0958C26.429 27.7741 25.6227 28.2987 24.7327 28.6332C23.8833 28.9625 22.9153 29.1865 21.4967 29.2532C20.074 29.3158 19.622 29.3332 15.9993 29.3332C12.3767 29.3332 11.9247 29.3198 10.502 29.2532C9.08335 29.1865 8.11668 28.9625 7.26602 28.6332C6.37598 28.2987 5.56966 27.7741 4.90335 27.0958C4.22509 26.4295 3.70044 25.6232 3.36602 24.7332C3.03535 23.8838 2.81268 22.9158 2.74602 21.4958C2.68202 20.0745 2.66602 19.6225 2.66602 15.9998C2.66602 12.3772 2.67935 11.9252 2.74602 10.5038C2.81268 9.0825 3.03535 8.11717 3.36602 7.2665C3.70044 6.37647 4.22509 5.57015 4.90335 4.90384C5.56966 4.22558 6.37598 3.70093 7.26602 3.3665C8.11535 3.03584 9.08201 2.81317 10.502 2.7465C11.926 2.68384 12.378 2.6665 16.0007 2.6665" fill="#FEAE00"/>
</svg>
