<svg width="42" height="42" viewBox="0 0 42 42" fill="none" xmlns="http://www.w3.org/2000/svg">
<path d="M13.9385 10.8535C13.6132 10.8059 13.2815 10.8714 12.9987 11.039H12.9742C12.318 11.424 11.7265 11.9087 11.2225 12.4792C10.8025 12.964 10.575 13.454 10.5155 13.9265C10.4805 14.2065 10.505 14.49 10.5872 14.7577L10.6187 14.7752C11.0912 16.163 11.7072 17.4982 12.4597 18.7547C13.4305 20.5193 14.6244 22.1515 16.0122 23.611L16.0542 23.6705L16.1207 23.7195L16.161 23.7667L16.21 23.8087C17.6747 25.2006 19.3107 26.4002 21.0785 27.3787C23.0997 28.4795 24.3265 28.9992 25.0632 29.2162V29.2267C25.2785 29.2932 25.4745 29.323 25.6722 29.323C26.3 29.278 26.8943 29.0227 27.3592 28.5985C27.928 28.0945 28.4092 27.5012 28.7837 26.8415V26.8292C29.1355 26.1642 29.0165 25.5377 28.509 25.1125C27.4905 24.2207 26.3881 23.4296 25.2172 22.75C24.4332 22.3247 23.637 22.582 23.315 23.0125L22.6272 23.8805C22.2737 24.311 21.6332 24.2515 21.6332 24.2515L21.6157 24.262C16.8365 23.0422 15.5607 18.2035 15.5607 18.2035C15.5607 18.2035 15.5012 17.5455 15.944 17.2095L16.805 16.5165C17.218 16.1805 17.505 15.386 17.0622 14.602C16.3842 13.432 15.5948 12.3302 14.705 11.312C14.5103 11.0729 14.2377 10.91 13.935 10.8518M22.0147 8.75C21.7827 8.75 21.5601 8.84219 21.396 9.00628C21.2319 9.17038 21.1397 9.39294 21.1397 9.625C21.1397 9.85706 21.2319 10.0796 21.396 10.2437C21.5601 10.4078 21.7827 10.5 22.0147 10.5C24.2267 10.5 26.0642 11.2227 27.5185 12.6087C28.2657 13.3665 28.8485 14.2643 29.23 15.2478C29.6132 16.233 29.7882 17.2847 29.7427 18.3382C29.733 18.5703 29.8158 18.7967 29.973 18.9677C30.1302 19.1387 30.3489 19.2403 30.581 19.25C30.8131 19.2597 31.0395 19.1769 31.2105 19.0197C31.3815 18.8625 31.483 18.6438 31.4927 18.4117C31.5449 17.116 31.3299 15.8233 30.861 14.6142C30.3899 13.399 29.6725 12.2944 28.754 11.3698L28.7365 11.3522C26.9322 9.6285 24.6502 8.75 22.0147 8.75Z" fill="#FEAE00"/>
<path d="M21.9531 11.6272C21.7211 11.6272 21.4985 11.7194 21.3344 11.8835C21.1703 12.0476 21.0781 12.2702 21.0781 12.5022C21.0781 12.7343 21.1703 12.9569 21.3344 13.121C21.4985 13.2851 21.7211 13.3772 21.9531 13.3772H21.9829C23.5789 13.491 24.7409 14.023 25.5546 14.8962C26.3894 15.7957 26.8216 16.914 26.7884 18.2965C26.783 18.5286 26.8701 18.7532 27.0304 18.9211C27.1907 19.089 27.4112 19.1863 27.6432 19.1916C27.8753 19.197 28.1 19.1099 28.2679 18.9496C28.4357 18.7892 28.533 18.5688 28.5384 18.3367C28.5804 16.522 27.9959 14.9557 26.8374 13.7062V13.7027C25.6526 12.4322 24.0269 11.7602 22.0704 11.629L22.0406 11.6255L21.9531 11.6272Z" fill="#FEAE00"/>
<path d="M21.9207 14.5581C21.8036 14.5477 21.6856 14.5611 21.5738 14.5974C21.4619 14.6337 21.3586 14.6921 21.2698 14.7692C21.1811 14.8463 21.1088 14.9405 21.0573 15.0461C21.0058 15.1518 20.9761 15.2668 20.9699 15.3842C20.9638 15.5016 20.9814 15.619 21.0217 15.7294C21.062 15.8399 21.1241 15.9411 21.2043 16.027C21.2846 16.1129 21.3813 16.1817 21.4887 16.2294C21.5962 16.2771 21.7121 16.3027 21.8297 16.3046C22.5612 16.3431 23.0284 16.5636 23.3224 16.8593C23.6182 17.1568 23.8387 17.6346 23.8789 18.3818C23.8811 18.4992 23.9069 18.615 23.9548 18.7223C24.0027 18.8295 24.0716 18.926 24.1576 19.006C24.2436 19.0861 24.3448 19.1479 24.4552 19.188C24.5655 19.2281 24.6829 19.2455 24.8002 19.2393C24.9174 19.2331 25.0323 19.2033 25.1378 19.1518C25.2433 19.1002 25.3374 19.028 25.4144 18.9393C25.4914 18.8506 25.5498 18.7474 25.586 18.6356C25.6223 18.5239 25.6357 18.4061 25.6254 18.2891C25.5694 17.2391 25.2404 16.3116 24.5667 15.6291C23.8894 14.9466 22.9672 14.6141 21.9207 14.5581Z" fill="#FEAE00"/>
<path fill-rule="evenodd" clip-rule="evenodd" d="M12.3679 4.1721C17.9365 2.92733 23.7112 2.92733 29.2799 4.1721L29.8731 4.30335C31.5005 4.66819 32.9951 5.47661 34.1912 6.63898C35.3872 7.80135 36.238 9.27226 36.6491 10.8886C38.0639 16.4585 38.0639 22.2937 36.6491 27.8636C36.238 29.4799 35.3872 30.9509 34.1912 32.1132C32.9951 33.2756 31.5005 34.084 29.8731 34.4488L29.2781 34.5801C25.7902 35.3589 22.2116 35.6528 18.6434 35.4534L14.0006 39.6078C13.8256 39.7646 13.6117 39.8714 13.3813 39.9173C13.1508 39.9631 12.9123 39.9463 12.6906 39.8685C12.4689 39.7907 12.2722 39.6549 12.1209 39.4751C11.9696 39.2954 11.8694 39.0783 11.8306 38.8466L11.0624 34.2581C9.58958 33.799 8.25899 32.9702 7.19748 31.8508C6.13598 30.7314 5.37895 29.3587 4.99861 27.8636C3.5838 22.2937 3.5838 16.4585 4.99861 10.8886C5.40976 9.27226 6.26051 7.80135 7.45656 6.63898C8.6526 5.47661 10.1472 4.66819 11.7746 4.30335L12.3679 4.1721ZM28.7076 6.73235C23.5158 5.57176 18.1319 5.57176 12.9401 6.73235L12.3451 6.86535C11.1918 7.12467 10.1327 7.69811 9.2852 8.52217C8.43766 9.34623 7.83471 10.3888 7.54311 11.5344C6.23585 16.6805 6.23585 22.0717 7.54311 27.2179C7.83485 28.3637 8.43806 29.4063 9.28593 30.2304C10.1338 31.0545 11.1932 31.6278 12.3469 31.8869L12.5044 31.9218C12.7591 31.9788 12.9912 32.1105 13.1707 32.3C13.3503 32.4896 13.4692 32.7284 13.5124 32.9859L14.0269 36.0624L17.3029 33.1311C17.4337 33.0137 17.5868 32.9238 17.753 32.8667C17.9192 32.8095 18.0953 32.7864 18.2706 32.7986C21.769 33.0456 25.2846 32.7833 28.7076 32.0199L29.3009 31.8869C30.4545 31.6278 31.5139 31.0545 32.3618 30.2304C33.2097 29.4063 33.8129 28.3637 34.1046 27.2179C35.4101 22.0729 35.4101 16.6811 34.1046 11.5344C33.8129 10.3885 33.2097 9.34586 32.3618 8.52177C31.5139 7.69769 30.4545 7.12438 29.3009 6.86535L28.7076 6.73235Z" fill="#FEAE00"/>
</svg>
