<svg width="97" height="34" viewBox="0 0 97 34" fill="none" xmlns="http://www.w3.org/2000/svg">
<g clip-path="url(#clip0_360_2788)">
<path d="M45.3328 11.2773L41.3926 34.0006H48.2451L52.1506 11.2773H45.3318H45.3328Z" fill="url(#paint0_linear_360_2788)"/>
<path d="M88.4676 11.2773L84.5273 34.0006H91.3799L95.2875 11.2773H88.4676Z" fill="url(#paint1_linear_360_2788)"/>
<path d="M82.1786 20.448C82.5546 19.9714 82.8569 19.4192 83.0876 18.7849C83.3203 18.1505 83.4351 17.4254 83.4351 16.6084C83.4351 14.8447 82.7568 13.5144 81.4013 12.6186C80.0415 11.727 78.1604 11.2764 75.7548 11.2764H56.4306L52.5156 34.0007H71.9799C74.098 34.0007 75.8201 33.7791 77.143 33.3404C78.468 32.8973 79.5107 32.3202 80.2732 31.6059C81.0358 30.8916 81.5508 30.0897 81.8279 29.1939C82.1028 28.298 82.2439 27.387 82.2439 26.4587C82.2439 25.3521 81.9827 24.4443 81.4634 23.7419C80.9473 23.0394 80.289 22.5672 79.497 22.3176C79.9783 22.1587 80.4544 21.9253 80.9178 21.6194C81.3823 21.3125 81.8015 20.9235 82.1775 20.448H82.1786ZM74.8605 27.6842C74.4635 28.0019 73.8441 28.1607 73.0079 28.1607H60.393L60.9354 25.0354H73.5376C74.8163 25.0354 75.4567 25.4666 75.4567 26.3247C75.4567 26.9126 75.2576 27.3675 74.8605 27.6842ZM76.0202 19.7866C75.5789 20.0471 75.0712 20.1768 74.4961 20.1768H61.7759L62.292 17.1876H74.9933C75.4356 17.1876 75.8253 17.2752 76.1676 17.4459C76.511 17.6145 76.6837 17.9246 76.6837 18.3785C76.6837 19.0583 76.4636 19.5273 76.0212 19.7877L76.0202 19.7866Z" fill="url(#paint2_linear_360_2788)"/>
<path d="M1.46614 27.8037H1.00692C0.450812 27.8037 0 28.2663 0 28.8368C0 29.4074 0.450812 29.8699 1.00692 29.8699H1.46614C2.02224 29.8699 2.47306 29.4074 2.47306 28.8368C2.47306 28.2663 2.02224 27.8037 1.46614 27.8037Z" fill="url(#paint3_linear_360_2788)"/>
<path d="M4.31553 19.54H3.69832C3.14222 19.54 2.69141 20.0026 2.69141 20.5732C2.69141 21.1437 3.14222 21.6063 3.69832 21.6063H4.31553C4.87164 21.6063 5.32245 21.1437 5.32245 20.5732C5.32245 20.0026 4.87164 19.54 4.31553 19.54Z" fill="url(#paint4_linear_360_2788)"/>
<path d="M6.18843 12.3105C6.18843 12.5958 6.07573 12.854 5.89457 13.041C5.71236 13.228 5.46063 13.3447 5.18257 13.3447H5.17098C4.61486 13.3447 4.16406 12.8811 4.16406 12.3115C4.16406 12.0262 4.27676 11.768 4.46003 11.581C4.64224 11.3941 4.89397 11.2773 5.17203 11.2773H5.18362C5.73974 11.2773 6.18948 11.741 6.18948 12.3105H6.18843Z" fill="url(#paint5_linear_360_2788)"/>
<path d="M39.0447 20.448C39.4207 19.9714 39.723 19.4192 39.9536 18.7849C40.1864 18.1505 40.2991 17.4254 40.2991 16.6084C40.2991 14.8447 39.6229 13.5144 38.2674 12.6186C36.9076 11.727 35.0265 11.2764 32.6208 11.2764H8.40954C8.13148 11.2764 7.87975 11.392 7.69754 11.58C7.51532 11.767 7.40368 12.0253 7.40368 12.3106C7.40368 12.8812 7.85342 13.3437 8.40954 13.3437H10.5614L10.5592 13.3588C11.0311 13.4453 11.3882 13.8667 11.3882 14.3757C11.3882 14.661 11.2765 14.9193 11.0943 15.1063C10.9121 15.2932 10.6604 15.4099 10.3823 15.4099H5.77744C5.49938 15.4099 5.24765 15.5245 5.06544 15.7114C4.88322 15.8984 4.77158 16.1567 4.77158 16.442C4.77158 17.0126 5.22132 17.4751 5.77744 17.4751H11.0216C11.5777 17.4751 12.0285 17.9365 12.0285 18.5071C12.0285 18.7924 11.9158 19.0507 11.7326 19.2377C11.5504 19.4246 11.2986 19.5413 11.0206 19.5413H7.56693C7.28887 19.5413 7.03714 19.6559 6.85493 19.8428C6.67271 20.0298 6.56107 20.2881 6.56107 20.5734C6.56107 21.144 7.01081 21.6065 7.56693 21.6065H12.7711C13.3272 21.6065 13.777 22.0679 13.777 22.6385C13.777 22.9249 13.6653 23.1832 13.4831 23.3701C13.3009 23.5571 13.0492 23.6716 12.7711 23.6716H7.85026C7.5722 23.6716 7.32047 23.7862 7.13825 23.9731C6.95604 24.1601 6.84229 24.4184 6.84229 24.7048C6.84229 25.2753 7.29414 25.7368 7.84921 25.7368H8.97093C9.5281 25.7368 9.97784 26.2004 9.97784 26.7699C9.97784 27.0552 9.8662 27.3135 9.68398 27.5004C9.50177 27.6874 9.25004 27.802 8.97093 27.802H5.01172C4.73366 27.802 4.48193 27.9176 4.29972 28.1056C4.11856 28.2926 4.00586 28.5509 4.00586 28.8362C4.00586 29.4067 4.4556 29.8682 5.01172 29.8682H10.9268C11.483 29.8682 11.9327 30.3318 11.9327 30.9013C11.9327 31.1866 11.82 31.4449 11.6388 31.6318C11.4566 31.8188 11.2049 31.9333 10.9268 31.9333H9.39644C9.11838 31.9333 8.86665 32.049 8.68444 32.237C8.50223 32.424 8.39058 32.6823 8.39058 32.9675C8.39058 33.5327 8.8319 33.9909 9.3817 33.9996H28.8459C30.9641 33.9996 32.6861 33.7781 34.008 33.3393C35.3351 32.8962 36.3768 32.3191 37.1393 31.6048C37.9019 30.8905 38.4169 30.0886 38.6939 29.1928C38.9688 28.2969 39.11 27.3859 39.11 26.4576C39.11 25.351 38.8488 24.4432 38.3295 23.7408C37.8134 23.0384 37.1541 22.5661 36.3631 22.3165C36.8444 22.1576 37.3205 21.9242 37.7839 21.6184C38.2484 21.3115 38.6676 20.9224 39.0436 20.4469L39.0447 20.448ZM31.7266 27.6842C31.3285 28.0019 30.7092 28.1607 29.8739 28.1607H17.259L17.8015 25.0354H30.4037C31.6824 25.0354 32.3228 25.4666 32.3228 26.3247C32.3228 26.9126 32.1237 27.3675 31.7266 27.6842ZM32.8862 19.7866C32.4449 20.0471 31.9373 20.1768 31.3622 20.1768H18.642L19.1581 17.1876H31.8593C32.3017 17.1876 32.6914 17.2752 33.0337 17.4459C33.3771 17.6145 33.5498 17.9246 33.5498 18.3785C33.5498 19.0583 33.3297 19.5273 32.8873 19.7877L32.8862 19.7866Z" fill="url(#paint6_linear_360_2788)"/>
<path d="M65.7156 5.1988L64.0904 6.95921H60.74C60.2218 6.95921 59.7479 6.88249 59.3192 6.72903C58.8905 6.57558 58.525 6.36377 58.2227 6.09468C57.9204 5.82559 57.6856 5.50679 57.5192 5.13829C57.3527 4.76978 57.2695 4.37101 57.2695 3.94091C57.2695 3.38112 57.3928 2.86672 57.6382 2.39555C57.8836 1.92438 58.2164 1.52021 58.6356 1.18304C59.0548 0.84587 59.5467 0.583268 60.1112 0.395232C60.6758 0.207195 61.2782 0.114258 61.9165 0.114258H66.594L64.9583 1.89412H61.6079C61.3025 1.89412 61.0107 1.94167 60.7348 2.03785C60.4588 2.13403 60.2176 2.26695 60.0122 2.43662C59.8058 2.60736 59.6436 2.8062 59.5235 3.03531C59.4034 3.26441 59.3445 3.51512 59.3445 3.78745C59.3445 3.99926 59.3855 4.19162 59.4687 4.36561C59.5519 4.5396 59.6678 4.68765 59.8174 4.81084C59.9669 4.93404 60.1449 5.02914 60.3514 5.09722C60.5578 5.1653 60.7864 5.19988 61.0392 5.19988H65.7167L65.7156 5.1988Z" fill="url(#paint7_linear_360_2788)"/>
<path d="M73.2758 0.767275C73.1631 0.54898 73.0146 0.366347 72.8313 0.219376C72.6481 0.0745661 72.4016 0 72.0888 0C71.776 0 71.481 0.0778081 71.2409 0.236666C71.0008 0.393363 70.7964 0.570593 70.6216 0.767275L65.2773 6.95842H67.7209L68.3613 6.21384H73.537C73.6718 6.47429 73.8024 6.72932 73.9204 6.95842H76.3766L73.2758 0.767275ZM69.8748 4.45344L71.6285 2.41421L72.5164 4.22649C72.529 4.24919 72.5691 4.33132 72.6323 4.45344H69.8748Z" fill="url(#paint8_linear_360_2788)"/>
<path d="M84.6781 2.94041C84.6076 3.05388 84.5149 3.1479 84.399 3.22247C84.2821 3.29812 84.1473 3.35647 83.9903 3.39754C83.8334 3.43752 83.6691 3.45805 83.4964 3.45805H79.7562L80.0111 1.89217H83.766C84.0862 1.89217 84.3337 1.94836 84.5149 2.06075C84.6939 2.17422 84.7845 2.34281 84.7845 2.56758C84.7845 2.70375 84.7497 2.82911 84.6792 2.94041H84.6781ZM86.3633 3.82764C86.5529 3.60286 86.6993 3.34999 86.8026 3.07009C86.9058 2.79128 86.9584 2.49626 86.9584 2.19043C86.9584 1.78086 86.8647 1.44261 86.6793 1.17676C86.4929 0.912 86.2517 0.698027 85.9557 0.537007C85.6598 0.377069 85.3311 0.26576 84.9688 0.205242C84.6065 0.143644 84.2516 0.112305 83.9061 0.112305H78.2859L77.0957 6.95834H79.159L79.4687 5.14714H82.639L83.8166 6.95834H86.5782L85.5713 5.62804C85.3849 5.38921 85.2342 5.20117 85.1173 5.06501C85.0004 4.92884 84.8972 4.81646 84.8024 4.72784C85.1226 4.66624 85.4144 4.55709 85.6798 4.39932C85.9452 4.24262 86.1738 4.05242 86.3633 3.82656V3.82764Z" fill="url(#paint9_linear_360_2788)"/>
<path d="M94.2068 2.84444C94.9315 2.84444 95.4813 2.97628 95.8573 3.23781C96.2333 3.50041 96.4208 3.88729 96.4208 4.39952C96.4208 4.76803 96.3607 5.10952 96.2417 5.42292C96.1216 5.73631 95.931 6.00756 95.6687 6.23666C95.4065 6.46576 95.0673 6.64299 94.6513 6.76835C94.2363 6.89479 93.7318 6.95747 93.1409 6.95747H86.9277L88.5529 5.19706H93.6086C93.8877 5.19706 94.0899 5.14951 94.2163 5.05333C94.3427 4.95823 94.4059 4.81126 94.4059 4.6135C94.4059 4.34117 94.1963 4.20392 93.7771 4.20392H90.137C89.3787 4.20392 88.8236 4.05371 88.4718 3.75329C88.119 3.45286 87.9431 3.05409 87.9431 2.5559C87.9431 2.20793 88.0031 1.88589 88.1221 1.58871C88.2422 1.29152 88.4328 1.03324 88.6962 0.810625C88.9584 0.589088 89.2965 0.416181 89.7083 0.294065C90.1202 0.170869 90.6194 0.110352 91.204 0.110352H96.998L95.3622 1.89021H90.7353C90.4562 1.89021 90.2529 1.93236 90.1265 2.01773C90.0001 2.1031 89.9369 2.24791 89.9369 2.45216C89.9369 2.71152 90.1497 2.8412 90.5752 2.8412H94.2047L94.2068 2.84444Z" fill="url(#paint10_linear_360_2788)"/>
</g>
<defs>
<linearGradient id="paint0_linear_360_2788" x1="43.4506" y1="22.6395" x2="97.4271" y2="22.6395" gradientUnits="userSpaceOnUse">
<stop stop-color="#FEAE00"/>
<stop offset="1" stop-color="#FFEA43"/>
</linearGradient>
<linearGradient id="paint1_linear_360_2788" x1="43.4502" y1="0.000565827" x2="97.4266" y2="0.000565827" gradientUnits="userSpaceOnUse">
<stop stop-color="#FEAE00"/>
<stop offset="1" stop-color="#FFEA43"/>
</linearGradient>
<linearGradient id="paint2_linear_360_2788" x1="-0.000975092" y1="22.6385" x2="97.4266" y2="22.6385" gradientUnits="userSpaceOnUse">
<stop stop-color="#FEAE00"/>
<stop offset="1" stop-color="#FFEA43"/>
</linearGradient>
<linearGradient id="paint3_linear_360_2788" x1="43.4512" y1="28.8368" x2="97.4276" y2="28.8368" gradientUnits="userSpaceOnUse">
<stop stop-color="#FEAE00"/>
<stop offset="1" stop-color="#FFEA43"/>
</linearGradient>
<linearGradient id="paint4_linear_360_2788" x1="43.4515" y1="20.5732" x2="97.4279" y2="20.5732" gradientUnits="userSpaceOnUse">
<stop stop-color="#FEAE00"/>
<stop offset="1" stop-color="#FFEA43"/>
</linearGradient>
<linearGradient id="paint5_linear_360_2788" x1="43.4517" y1="12.3105" x2="97.4281" y2="12.3105" gradientUnits="userSpaceOnUse">
<stop stop-color="#FEAE00"/>
<stop offset="1" stop-color="#FFEA43"/>
</linearGradient>
<linearGradient id="paint6_linear_360_2788" x1="43.4504" y1="22.6385" x2="97.4269" y2="22.6385" gradientUnits="userSpaceOnUse">
<stop stop-color="#FEAE00"/>
<stop offset="1" stop-color="#FFEA43"/>
</linearGradient>
<linearGradient id="paint7_linear_360_2788" x1="43.4508" y1="3.53566" x2="97.4272" y2="3.53566" gradientUnits="userSpaceOnUse">
<stop stop-color="#FEAE00"/>
<stop offset="1" stop-color="#FFEA43"/>
</linearGradient>
<linearGradient id="paint8_linear_360_2788" x1="43.4506" y1="3.47975" x2="97.4271" y2="3.47975" gradientUnits="userSpaceOnUse">
<stop stop-color="#FEAE00"/>
<stop offset="1" stop-color="#FFEA43"/>
</linearGradient>
<linearGradient id="paint9_linear_360_2788" x1="43.4504" y1="3.53478" x2="97.4268" y2="3.53478" gradientUnits="userSpaceOnUse">
<stop stop-color="#FEAE00"/>
<stop offset="1" stop-color="#FFEA43"/>
</linearGradient>
<linearGradient id="paint10_linear_360_2788" x1="43.4502" y1="3.53499" x2="97.4266" y2="3.53499" gradientUnits="userSpaceOnUse">
<stop stop-color="#FEAE00"/>
<stop offset="1" stop-color="#FFEA43"/>
</linearGradient>
<clipPath id="clip0_360_2788">
<rect width="97" height="34" fill="white"/>
</clipPath>
</defs>
</svg>
