<svg width="24" height="24" viewBox="0 0 24 24" fill="none" xmlns="http://www.w3.org/2000/svg">
<path d="M9.00586 17C9.00586 17.5304 8.79515 18.0391 8.42007 18.4142C8.045 18.7893 7.53629 19 7.00586 19C6.47543 19 5.96672 18.7893 5.59165 18.4142C5.21657 18.0391 5.00586 17.5304 5.00586 17C5.00586 16.4696 5.21657 15.9609 5.59165 15.5858C5.96672 15.2107 6.47543 15 7.00586 15C7.53629 15 8.045 15.2107 8.42007 15.5858C8.79515 15.9609 9.00586 16.4696 9.00586 17ZM19.0059 17C19.0059 17.5304 18.7951 18.0391 18.4201 18.4142C18.045 18.7893 17.5363 19 17.0059 19C16.4754 19 15.9667 18.7893 15.5916 18.4142C15.2166 18.0391 15.0059 17.5304 15.0059 17C15.0059 16.4696 15.2166 15.9609 15.5916 15.5858C15.9667 15.2107 16.4754 15 17.0059 15C17.5363 15 18.045 15.2107 18.4201 15.5858C18.7951 15.9609 19.0059 16.4696 19.0059 17Z" stroke="#FEAE00" stroke-width="1.5"/>
<path d="M2.00586 10H18.0059M3.64086 5.42C3.16086 6.2 2.22186 8.26 2.00586 10C2.00586 10.78 1.98586 13.04 2.00986 15.26C2.04586 15.98 2.16586 16.58 5.00786 17M9.00586 10V5M14.9959 17H9.00086M2.02186 5H12.2389C12.2389 5 12.7789 5 13.2589 5.048C14.1579 5.132 14.9129 5.54 15.6689 6.56C16.4689 7.64 17.0839 9.008 17.8989 9.74C19.2539 10.956 21.8319 10.58 21.9759 13.16C22.0119 14.48 22.0119 15.92 21.9519 16.16C21.8559 16.867 21.3109 16.982 20.6329 17C20.0449 17.016 19.3359 16.972 18.9899 17" stroke="#FEAE00" stroke-width="1.5" stroke-linecap="round"/>
</svg>
