<svg width="32" height="32" viewBox="0 0 32 32" fill="none" xmlns="http://www.w3.org/2000/svg">
<path d="M16.0007 12.0003C14.9398 12.0003 13.9224 12.4218 13.1723 13.1719C12.4221 13.922 12.0007 14.9395 12.0007 16.0003C12.0007 17.0612 12.4221 18.0786 13.1723 18.8288C13.9224 19.5789 14.9398 20.0003 16.0007 20.0003C17.0615 20.0003 18.079 19.5789 18.8291 18.8288C19.5793 18.0786 20.0007 17.0612 20.0007 16.0003C20.0007 14.9395 19.5793 13.922 18.8291 13.1719C18.079 12.4218 17.0615 12.0003 16.0007 12.0003ZM16.0007 9.33366C17.7688 9.33366 19.4645 10.036 20.7147 11.2863C21.965 12.5365 22.6673 14.2322 22.6673 16.0003C22.6673 17.7684 21.965 19.4641 20.7147 20.7144C19.4645 21.9646 17.7688 22.667 16.0007 22.667C14.2326 22.667 12.5369 21.9646 11.2866 20.7144C10.0364 19.4641 9.33402 17.7684 9.33402 16.0003C9.33402 14.2322 10.0364 12.5365 11.2866 11.2863C12.5369 10.036 14.2326 9.33366 16.0007 9.33366ZM24.6673 9.00033C24.6673 9.44235 24.4918 9.86628 24.1792 10.1788C23.8666 10.4914 23.4427 10.667 23.0007 10.667C22.5587 10.667 22.1347 10.4914 21.8222 10.1788C21.5096 9.86628 21.334 9.44235 21.334 9.00033C21.334 8.5583 21.5096 8.13437 21.8222 7.82181C22.1347 7.50925 22.5587 7.33366 23.0007 7.33366C23.4427 7.33366 23.8666 7.50925 24.1792 7.82181C24.4918 8.13437 24.6673 8.5583 24.6673 9.00033ZM16.0007 5.33366C12.702 5.33366 12.1633 5.34299 10.6287 5.41099C9.58335 5.46033 8.88201 5.60033 8.23135 5.85366C7.68713 6.05415 7.19498 6.37451 6.79135 6.79099C6.37438 7.19448 6.05356 7.68664 5.85268 8.23099C5.59935 8.88432 5.45935 9.58433 5.41135 10.6283C5.34202 12.1003 5.33268 12.615 5.33268 16.0003C5.33268 19.3003 5.34202 19.8377 5.41002 21.3723C5.45935 22.4163 5.59935 23.119 5.85135 23.7683C6.07802 24.3483 6.34468 24.7657 6.78735 25.2083C7.23668 25.6563 7.65402 25.9243 8.22735 26.1457C8.88602 26.4003 9.58735 26.5417 10.6273 26.5897C12.0993 26.659 12.614 26.667 15.9993 26.667C19.2993 26.667 19.8367 26.6577 21.3713 26.5897C22.414 26.5403 23.1153 26.4003 23.7673 26.1483C24.3116 25.9478 24.8037 25.6275 25.2073 25.211C25.6567 24.763 25.9247 24.3457 26.146 23.771C26.3993 23.115 26.5407 22.4137 26.5887 21.371C26.658 19.9003 26.666 19.3843 26.666 16.0003C26.666 12.7017 26.6567 12.163 26.5887 10.6283C26.5393 9.58566 26.398 8.88166 26.146 8.23099C25.9455 7.68677 25.6252 7.19462 25.2087 6.79099C24.8052 6.37402 24.313 6.05321 23.7687 5.85233C23.1153 5.59899 22.414 5.45899 21.3713 5.41099C19.9007 5.34166 19.386 5.33366 15.9993 5.33366M15.9993 2.66699C19.622 2.66699 20.074 2.68033 21.4967 2.74699C22.9153 2.81366 23.8833 3.03633 24.7327 3.36699C25.6127 3.70566 26.354 4.16433 27.0953 4.90433C27.7736 5.57064 28.2983 6.37695 28.6327 7.26699C28.962 8.11632 29.186 9.08432 29.2527 10.5043C29.3153 11.9257 29.3327 12.3777 29.3327 16.0003C29.3327 19.623 29.3193 20.075 29.2527 21.4963C29.186 22.9177 28.962 23.883 28.6327 24.7337C28.2983 25.6237 27.7736 26.43 27.0953 27.0963C26.429 27.7746 25.6227 28.2992 24.7327 28.6337C23.8833 28.963 22.9153 29.187 21.4967 29.2537C20.074 29.3163 19.622 29.3337 15.9993 29.3337C12.3767 29.3337 11.9247 29.3203 10.502 29.2537C9.08335 29.187 8.11668 28.963 7.26602 28.6337C6.37598 28.2992 5.56966 27.7746 4.90335 27.0963C4.22509 26.43 3.70044 25.6237 3.36602 24.7337C3.03535 23.8843 2.81268 22.9163 2.74602 21.4963C2.68202 20.075 2.66602 19.623 2.66602 16.0003C2.66602 12.3777 2.67935 11.9257 2.74602 10.5043C2.81268 9.08299 3.03535 8.11766 3.36602 7.26699C3.70044 6.37695 4.22509 5.57064 4.90335 4.90433C5.56966 4.22607 6.37598 3.70141 7.26602 3.36699C8.11535 3.03633 9.08201 2.81366 10.502 2.74699C11.926 2.68433 12.378 2.66699 16.0007 2.66699" fill="white"/>
</svg>
