<svg width="32" height="32" viewBox="0 0 32 32" fill="none" xmlns="http://www.w3.org/2000/svg">
<circle cx="16" cy="16" r="15.5" stroke="#FEAE00"/>
<path d="M20.2528 10.9862L21.6685 15.1643H22.3499V15.9999H22.2044C22.1162 16.248 21.9927 16.4743 21.8339 16.6789C21.6751 16.8834 21.4899 17.0597 21.2782 17.2077C21.0665 17.3556 20.8372 17.4688 20.5902 17.5471C20.3432 17.6255 20.083 17.6668 19.8096 17.6712C19.5406 17.6712 19.2826 17.632 19.0356 17.5537C18.7886 17.4753 18.5593 17.3622 18.3476 17.2142C18.1359 17.0662 17.9507 16.8899 17.7919 16.6854C17.6332 16.4808 17.5075 16.2523 17.4148 15.9999H17.2693V15.1643H17.9507L19.3664 10.9862H16.4225V20.1911C17.1591 20.239 17.8559 20.4022 18.513 20.6807C19.1701 20.9592 19.7721 21.3488 20.319 21.8493H21.5031V22.6849H10.4952V21.8493H11.6793C12.2218 21.3531 12.8216 20.9658 13.4787 20.6872C14.1358 20.4087 14.8349 20.2433 15.5758 20.1911V10.9862H12.632L14.0476 15.1643H14.729V15.9999H14.5835C14.4953 16.248 14.3718 16.4743 14.213 16.6789C14.0543 16.8834 13.869 17.0597 13.6573 17.2077C13.4456 17.3556 13.2163 17.4688 12.9693 17.5471C12.7224 17.6255 12.4622 17.6668 12.1887 17.6712C11.9197 17.6712 11.6617 17.632 11.4147 17.5537C11.1678 17.4753 10.9384 17.3622 10.7267 17.2142C10.515 17.0662 10.3298 16.8899 10.171 16.6854C10.0123 16.4808 9.88659 16.2523 9.79398 15.9999H9.64844V15.1643H10.3298L11.7455 10.9862H9.64844V10.1506H15.5758V9.31494H16.4225V10.1506H22.3499V10.9862H20.2528ZM12.1887 12.3049L11.2229 15.1643H13.1546L12.1887 12.3049ZM12.1887 16.8355C12.493 16.8355 12.7753 16.7616 13.0355 16.6136C13.2957 16.4656 13.503 16.2611 13.6573 15.9999H10.7201C10.8745 16.2611 11.0818 16.4656 11.342 16.6136C11.6022 16.7616 11.8844 16.8355 12.1887 16.8355ZM18.9364 21.8493C18.4954 21.5751 18.0257 21.3684 17.5273 21.2291C17.029 21.0898 16.5196 21.018 15.9992 21.0137C15.4788 21.0137 14.9694 21.0833 14.471 21.2226C13.9727 21.3618 13.503 21.5707 13.062 21.8493H18.9364ZM19.8096 12.3049L18.8438 15.1643H20.7754L19.8096 12.3049ZM19.8096 16.8355C20.1139 16.8355 20.3962 16.7616 20.6564 16.6136C20.9166 16.4656 21.1238 16.2611 21.2782 15.9999H18.341C18.4954 16.2611 18.7026 16.4656 18.9628 16.6136C19.223 16.7616 19.5053 16.8355 19.8096 16.8355Z" fill="#FEAE00"/>
</svg>
